<?xml version="1.0" encoding="UTF-8" standalone="no"?>
<svg
   viewBox="0 0 333.51742 411.11998"
   width="29.381296"
   height="28.178558"
   version="1.1"
   id="svg8"
   xmlns="http://www.w3.org/2000/svg"
   xmlns:svg="http://www.w3.org/2000/svg">
   <defs
      id="defs12" />
   <style
      id="style2">
      tspan { white-space:pre }
      .shp0 { fill: hsl(255, 98%, 80%); }
   </style>
   <path
      class="shp0"
      d="M 105.59248,410.96583 C 79.217388,399.31352 61.295682,374.21029 58.944672,345.45848 c 1.54165,-29.57402 17.163716,-56.60432 41.971468,-72.72743 -4.072532,9.93081 -3.083312,21.23626 2.56942,30.31916 6.43639,8.99297 17.51059,13.30959 28.35354,11.06135 15.44222,-4.34232 24.48657,-20.3755 20.14425,-35.83056 -1.54165,-5.40863 -4.62495,-10.31622 -8.8388,-14.01618 -17.47205,-14.20889 -26.24662,-36.53715 -23.12478,-58.85256 2.99338,-11.81933 9.53255,-22.50812 18.76961,-30.5761 -6.93743,18.49983 12.6287,36.75555 25.75844,45.73567 23.30463,13.97765 45.73567,29.34278 67.21602,46.00546 23.47164,18.49983 36.26735,47.45719 34.26321,77.0826 -5.28016,31.52678 -27.58272,57.555 -57.97896,67.31879 60.80532,-13.52799 123.49916,-61.83308 124.69394,-130.34666 -1.19478,-54.81857 -33.91634,-104.01011 -83.9301,-126.41545 h -2.22254 c 1.10485,2.68504 1.64443,5.57564 1.54165,8.49193 0.16701,-1.88852 0.16701,-3.7642 0,-5.65272 0.26979,2.22255 0.26979,4.45794 0,6.68049 -3.80274,15.58353 -19.52759,25.18031 -35.14966,21.37757 -6.24369,-1.54165 -11.81933,-5.04891 -15.82763,-10.11066 -20.04147,-25.6942 0,-54.9342 3.35309,-83.197812 C 202.56238,55.666478 186.05386,21.120628 156.76247,-2.4414064e-6 171.42101,24.435179 151.89342,56.527228 137.69738,74.782958 123.47564,93.038688 102.92028,106.64376 86.167668,122.57417 68.117488,139.36532 51.570432,157.82661 36.719192,177.55975 4.6142879,216.78194 -7.9887161,268.51721 2.4559749,318.10701 16.78049,365.89821 56.503722,401.80585 105.4897,411.12 h 0.26979 z"
      id="path4"
      style="opacity:1;stroke-width:1.28471" />
</svg>