<?xml version="1.0" encoding="utf-8"?>
<svg version="1.1" id="Layer_1" xmlns="http://www.w3.org/2000/svg" xmlns:xlink="http://www.w3.org/1999/xlink" x="0px" y="0px"
	viewBox="0 0 1000 1000" style="enable-background:new 0 0 1000 1000;" xml:space="preserve">
	<style type="text/css">
	.st0{fill-rule:evenodd;clip-rule:evenodd;fill:hsl(255, 98%, 80%);}
</style>
	<g id="badge">
		<path class="st0" d="M500,11.3l1,0.3V11L500,11.3z M500,988.6l1,0.5v-1.1L500,988.6z" />
		<path class="st0" d="M501,11.7l-1-0.3l-1,0.3L44,169.6l65.4,606.2L499,988.1l1,0.5l1-0.5l389.6-212.2L956,169.6L501,11.7z
		 M780.8,592.2C736.3,699.5,654.4,756.1,535.1,762c-11.8,0-23.2-0.7-34.1-2c-0.7-0.1-1.3-0.2-2-0.2c-94.6-12-153.9-67-153.8-67
		c-47.4-36.9-80-83.4-97.7-139.3c-28.3-31-28.6-34.3-31.6-46.7c-2.9-12.4,1.9-15.8,10.2-27.9c5.5-8.1,6.8-19.7,4-34.6
		c-7-9.8-11.1-25.1-12.2-46c0-10.1,6.7-20.7,20.2-31.9c13.5-11.2,21.7-19.8,24.7-25.7c2.3-3.2,3.2-17.2,2.6-42
		c-0.1-24.4,13.4-37.6,40.6-39.8c40.8-3.2,63.8-33.9,76.6-47.8c8.5-9.3,21.2-13.8,37.1-13.9c22.4-1.1,42.9,7.5,60.5,25.3
		c6.3-0.3,12.6-0.4,18.9-0.1c0.7,0,1.3,0.1,2,0.1c37.2,1.8,75,13.6,113.3,35.2c64.6,38.4,99.9,80,105.8,124.5
		c-6.7,56.4-79.8,57.1-219.1,2.2c-0.7-0.3-1.3-0.5-2-0.8c-4.9-1.9-9.8-3.9-14.8-6c-78.6,22.3-117.3,70.5-116,144.8
		c0,68.1,32.9,117.6,98.7,148.5c-32.1-31.5-45.7-57.9-41.1-79.8c23.3,27.6,47.7,49.1,73.2,64.6c0.7,0.4,1.3,0.8,2,1.2
		c47,27.9,97.9,35.5,152.5,22.7c-37.5,1.3-67.2-10.8-89.6-36.4c57.5-1.4,111.8-28.1,163-80.4c-29.5,23.5-60.4,32.4-93.1,26.8
		c88.6-69.6,119.9-150.9,94-243.7l-0.1-0.3c20.9,23.2,31.6,50.8,32.2,82.7s-10.2,65.6-32.4,100.9c16.6-12.9,35.8-40.8,57.5-83.4
		c9.4,86.2-25.5,151.8-104.9,196.6C705.4,640,739.1,623.3,780.8,592.2z" />
		<circle class="st0" cx="567" cy="322" r="13" />
		<path class="st0" d="M499,988.1v1.1l1-0.5L499,988.1z M499,11v0.7l1-0.3L499,11z" />
	</g>
</svg>