<?xml version="1.0" encoding="utf-8"?>
<svg version="1.1" id="Layer_1" xmlns="http://www.w3.org/2000/svg" xmlns:xlink="http://www.w3.org/1999/xlink" x="0px" y="0px"
	viewBox="0 0 571.5 575.3" style="enable-background:new 0 0 571.5 575.3;" xml:space="preserve">
	<style type="text/css">
	.st0{fill-rule:evenodd;clip-rule:evenodd;fill:hsl(255, 98%, 80%);}
</style>
	<g id="badge">
		<path class="st0" d="M285,797.1l1,0.5v-1.1L285,797.1z M285-180.2l1,0.3v-0.7L285-180.2z" />
		<path class="st0" d="M570,254.2c-21.7,42.6-40.9,70.5-57.5,83.4c22.2-35.3,33-69,32.4-100.9s-11.3-59.5-32.2-82.7l0.1,0.3
		c25.9,92.8-5.5,174.1-94,243.7c32.7,5.6,63.6-3.3,93.1-26.8c-51.1,52.3-105.5,79.1-163,80.4c22.4,25.6,52.1,37.7,89.6,36.4
		c-54.6,12.8-105.4,5.2-152.5-22.7l-2-1.2c-25.5-15.5-50-37.1-73.2-64.6c-4.6,21.9,9.1,48.4,41.1,79.8
		c-65.8-30.8-98.7-80.3-98.7-148.5c-1.3-74.2,37.4-122.5,116-144.8c5,2.1,10,4.1,14.8,6l2,0.8c139.3,55,212.4,54.3,219.1-2.1
		C499.2,146,463.9,104.4,399.3,66C361,44.4,323.1,32.7,286,30.8c-0.6,0-1.3-0.1-2-0.1c-6.3-0.3-12.6-0.2-18.9,0.1
		c-17.6-17.8-38-26.4-60.5-25.3c-15.9,0.1-28.6,4.6-37.1,13.9C154.7,33.4,131.7,64,90.9,67.3C63.8,69.4,50.2,82.7,50.4,107
		c0.5,24.8-0.4,38.8-2.6,42c-3,5.9-11.2,14.5-24.7,25.7S2.8,196.6,2.8,206.7c1.1,20.9,5.1,36.2,12.2,46c2.9,14.9,1.5,26.6-4,34.6
		c-8.3,12.1-13.1,15.6-10.2,27.9c2.9,12.4,3.2,15.7,31.6,46.6c17.7,55.9,50.3,102.4,97.7,139.3c71.1,55.4,59.3,55,153.9,67l2,0.2
		c11.3,1.3,22.7,2,34.1,2c119.3-5.9,201.2-62.5,245.7-169.8c-41.7,31.1-75.3,47.8-100.8,50.1C544.5,405.9,579.5,340.4,570,254.2z
		 M352,117.4c7.2,0,13,5.8,13,13s-5.8,13-13,13s-13-5.8-13-13S344.8,117.4,352,117.4L352,117.4z" />
		<path class="st0" d="M284-180.6v0.7l1-0.3L284-180.6z M284,796.5v1.1l1-0.5L284,796.5z" />
	</g>
</svg>