<?xml version="1.0" encoding="UTF-8" standalone="no"?>
<!-- Created with Inkscape (http://www.inkscape.org/) -->

<svg
   id="svg5"
   version="1.1"
   viewBox="0 0 210.20967 142.73119"
   height="142.73119mm"
   width="210.20967mm"
   xmlns="http://www.w3.org/2000/svg"
   xmlns:svg="http://www.w3.org/2000/svg"
   style="color:#00bcc4"
>
   <defs
      id="defs2" />
   <g
      id="g31296"
      transform="translate(0.10754301,-2.3064517)">
      <path
         style="fill:none;stroke:currentColor;stroke-width:0.269792;stroke-opacity:1"
         d="M -0.08617706,38.809735 210.04361,5.1021343"
         id="path31286" />
      <path
         style="fill:none;stroke:currentColor;stroke-width:0.269685;stroke-opacity:1"
         d="M -0.02127656,91.682355 209.97871,144.90692"
         id="path31288" />
      <path
         style="fill:none;stroke:currentColor;stroke-width:0.267315;stroke-opacity:1"
         d="m -0.06435336,57.261565 c 0,0 8.35319996,1.06448 16.50306636,-3.9031 8.149867,-4.96759 5.433245,-3.72569 12.496463,-6.56431 7.063222,-2.83862 14.126438,8.16103 14.126438,8.16103 0,0 5.252137,6.20948 8.14987,5.32241 2.897731,-0.88707 5.750381,-1.9373 9.236517,-4.96758 C 65.94594,50.530995 73.850005,2.6181444 84.716496,2.4407244 95.582987,2.2633144 96.12631,40.229845 101.55956,48.568295 c 5.43324,8.33844 7.60654,10.82223 14.48865,11.7093 6.88211,0.88707 15.75641,-3.72568 15.75641,-3.72568 0,0 20.82745,-14.72534 27.34734,-13.66086 6.51989,1.06448 12.67757,5.85465 12.67757,5.85465 0,0 15.4097,11.29824 20.64634,8.51586 6.45358,-3.42898 17.50163,-17.03172 17.50163,-17.03172"
         id="path31290" />
      <path
         style="fill:none;stroke:currentColor;stroke-width:0.267274;stroke-opacity:1"
         d="m -0.00466306,84.939365 c 0,0 8.35094086,1.06445 16.49860206,-3.90297 8.147663,-4.96742 5.431777,-3.72556 12.493084,-6.56408 7.061311,-2.83853 14.303676,8.16075 14.303676,8.16075 0,0 5.612834,6.08135 8.509784,5.19431 2.896947,-0.88704 2.534826,-0.4043 8.147663,-4.66208 5.612835,-4.25779 12.312024,-16.67633 23.175577,-16.85374 10.863551,-0.17741 13.03626,1.59667 18.468037,9.93483 5.43177,8.33817 17.74379,12.95077 24.62404,13.83781 6.88025,0.88704 20.09758,-6.03186 20.09758,-6.03186 0,0 18.46804,-11.88633 24.98617,-10.82188 6.51813,1.06445 14.30367,5.49964 14.30367,5.49964 0,0 8.14767,5.32224 13.76051,7.27372 5.61283,1.9515 10.61664,-1.24186 10.61664,-1.24186"
         id="path31292" />
      <path
         style="fill:none;stroke:currentColor;stroke-width:0.267303;stroke-opacity:1"
         d="m -0.02128316,48.036575 c 0,0 8.35217086,1.06452 16.50103316,-3.90322 8.148863,-4.96774 6.14196,-13.38687 13.257514,-12.71767 30.950476,22.89864 29.259317,-35.1782807 44.871052,5.97573 6.881262,14.07266 51.609474,-10.46774 63.198974,-4.96774 15.88388,11.60093 56.02827,3.34638 72.17143,-4.91121"
         id="path31294" />
      <g
         id="g36518"
         transform="translate(0.01534854,-142.86665)">
         <path
            d="m -0.0360891,234.331 c 0,0 5.7146091,1.415 15.0852891,3.563 3.7459,0.723 7.6771,1.781 12.3596,2.819 4.7834,1.063 10.0286,2.688 15.3894,4.046 2.8112,0.713 5.8995,1.646 8.9809,2.375 2.7049,0.633 5.3664,1.326 8.2719,1.879 8.1236,1.876 16.7186,3.599 25.6302,5.763 6.6291,1.586 13.0757,3.259 19.6248,5.144 8.415,2.357 17.048,4.593 25.285,6.653 6.356,1.583 12.788,2.882 18.566,4.347 8.324,2.109 16.773,3.716 24.077,5.549 4.905,1.224 9.517,2.472 13.461,3.472 5.171,1.31 9.888,2.611 13.617,3.573 6.094,1.562 9.651,2.319 9.651,2.319"
            style="fill:none;stroke:currentColor;stroke-width:0.269685;stroke-opacity:1"
            id="path36458" />
         <path
            d="m -0.0355532,234.114 c 0,0 5.8024932,1.403 15.1323532,3.314 3.8927,0.533 7.6023,1.597 12.3641,2.506 4.8593,0.933 10.1711,2.87 15.3532,4.183 2.7175,0.689 5.89,1.794 8.9652,2.469 2.7113,0.582 5.272,1.268 8.2678,1.661 8.0398,1.671 16.5717,2.923 25.5483,5.009 6.7703,1.527 13.0745,3.204 19.5866,5.303 8.315,2.557 17.071,4.872 25.262,6.893 6.374,1.56 13.032,2.585 18.618,4.001 8.046,2.039 16.83,3.197 24.107,5.003 4.958,1.219 9.676,2.574 13.489,3.54 4.999,1.267 9.83,2.702 13.622,3.697 6.078,1.574 9.683,2.2 9.683,2.2"
            style="fill:none;stroke:currentColor;stroke-width:0.269685;stroke-opacity:1"
            id="path36460" />
         <path
            d="m -0.0350173,233.896 c 0,0 5.8903673,1.392 15.1795173,3.065 4.0393,0.344 7.5274,1.414 12.3685,2.193 4.9352,0.803 10.3136,3.053 15.317,4.322 2.6238,0.664 5.8804,1.941 8.9495,2.562 2.7177,0.532 5.1776,1.211 8.2636,1.443 7.9562,1.467 16.4249,2.247 25.4666,4.255 6.9113,1.468 13.0731,3.148 19.5483,5.463 8.216,2.756 17.094,5.151 25.24,7.132 6.391,1.537 13.275,2.288 18.669,3.655 7.768,1.969 16.886,2.677 24.137,4.458 5.012,1.213 9.836,2.674 13.517,3.607 4.827,1.223 9.772,2.792 13.627,3.82 6.062,1.588 9.716,2.082 9.716,2.082"
            style="fill:none;stroke:currentColor;stroke-width:0.269685;stroke-opacity:1"
            id="path36462" />
         <path
            d="m -0.0344814,233.679 c 0,0 5.9782414,1.379 15.2265814,2.816 4.1861,0.154 7.4526,1.23 12.373,1.88 5.0112,0.673 10.4561,3.236 15.2809,4.459 2.53,0.641 5.8708,2.089 8.9337,2.656 2.7241,0.481 5.0832,1.153 8.2595,1.225 7.8725,1.262 16.278,1.571 25.3847,3.501 7.0525,1.41 13.0718,3.093 19.5091,5.623 8.117,2.955 17.117,5.429 25.219,7.372 6.408,1.513 13.519,1.991 18.72,3.309 7.491,1.898 16.942,2.156 24.167,3.912 5.066,1.208 9.996,2.775 13.545,3.674 4.654,1.18 9.714,2.883 13.632,3.944 6.046,1.6 9.748,1.963 9.748,1.963"
            style="fill:none;stroke:currentColor;stroke-width:0.269685;stroke-opacity:1"
            id="path36464" />
         <path
            d="m -0.0339455,233.461 c 0,0 6.0661255,1.368 15.2737455,2.568 4.3328,-0.037 7.3777,1.047 12.3774,1.567 5.0871,0.543 10.5986,3.418 15.2447,4.596 2.4363,0.617 5.8612,2.236 8.918,2.75 2.7305,0.43 4.9888,1.095 8.2554,1.007 7.7887,1.058 16.131,0.895 25.3029,2.747 7.1936,1.351 13.0704,3.038 19.4708,5.783 8.017,3.154 17.14,5.707 25.196,7.611 6.427,1.491 13.763,1.694 18.771,2.963 7.214,1.828 16.999,1.636 24.198,3.366 5.12,1.203 10.155,2.876 13.573,3.743 4.482,1.135 9.657,2.972 13.637,4.066 6.03,1.614 9.78,1.845 9.78,1.845"
            style="fill:none;stroke:currentColor;stroke-width:0.269685;stroke-opacity:1"
            id="path36466" />
         <path
            d="m -0.0334095,233.244 c 0,0 6.1539995,1.356 15.3208095,2.318 4.4796,-0.226 7.3029,0.864 12.3819,1.255 5.163,0.413 10.7411,3.6 15.2085,4.733 2.3426,0.593 5.8517,2.384 8.9023,2.844 2.7369,0.38 4.8944,1.038 8.2512,0.789 7.7051,0.853 15.9842,0.22 25.2211,1.993 7.3348,1.292 13.0692,2.982 19.4326,5.942 7.917,3.355 17.163,5.987 25.174,7.851 6.444,1.468 14.006,1.397 18.822,2.617 6.936,1.758 17.055,1.116 24.228,2.821 5.174,1.197 10.315,2.977 13.602,3.81 4.309,1.092 9.598,3.063 13.641,4.19 6.014,1.627 9.812,1.726 9.812,1.726"
            style="fill:none;stroke:currentColor;stroke-width:0.269685;stroke-opacity:1"
            id="path36468" />
         <path
            d="m -0.0328736,233.026 c 0,0 6.2418736,1.345 15.3678736,2.07 4.6263,-0.416 7.2281,0.68 12.3864,0.942 5.2389,0.283 10.8836,3.783 15.1723,4.87 2.2489,0.57 5.8421,2.532 8.8866,2.938 2.7433,0.329 4.8001,0.98 8.2471,0.571 7.6214,0.649 15.8373,-0.456 25.1392,1.239 7.476,1.233 13.0679,2.927 19.3934,6.102 7.819,3.554 17.187,6.265 25.153,8.09 6.461,1.445 14.25,1.1 18.873,2.272 6.658,1.687 17.112,0.596 24.258,2.274 5.227,1.192 10.474,3.078 13.63,3.878 4.136,1.048 9.54,3.153 13.645,4.313 5.998,1.64 9.845,1.607 9.845,1.607"
            style="fill:none;stroke:currentColor;stroke-width:0.269685;stroke-opacity:1"
            id="path36470" />
         <path
            d="m -0.0323377,232.809 c 0,0 6.3297577,1.333 15.4150377,1.82 4.773,-0.605 7.1532,0.497 12.3907,0.63 5.315,0.153 11.0262,3.965 15.1362,5.007 2.1552,0.546 5.8326,2.68 8.8709,3.032 2.7497,0.278 4.7057,0.922 8.2429,0.353 7.5377,0.444 15.6905,-1.132 25.0575,0.486 7.6171,1.174 13.0665,2.871 19.3551,6.261 7.719,3.753 17.21,6.543 25.13,8.33 6.479,1.421 14.494,0.802 18.924,1.925 6.382,1.617 17.169,0.076 24.289,1.729 5.281,1.187 10.634,3.179 13.658,3.945 3.964,1.005 9.482,3.244 13.65,4.437 5.982,1.653 9.877,1.488 9.877,1.488"
            style="fill:none;stroke:currentColor;stroke-width:0.269685;stroke-opacity:1"
            id="path36472" />
         <path
            d="m -0.0318018,232.591 c 0,0 6.4176318,1.321 15.4621018,1.572 4.9198,-0.795 7.0784,0.313 12.3952,0.317 5.3909,0.022 11.1687,4.147 15.1,5.144 2.0615,0.522 5.823,2.828 8.8552,3.126 2.7561,0.228 4.6113,0.865 8.2388,0.135 7.454,0.24 15.5435,-1.808 24.9756,-0.268 7.7583,1.115 13.0652,2.815 19.3169,6.421 7.619,3.952 17.233,6.822 25.108,8.569 6.496,1.398 14.737,0.505 18.975,1.579 6.104,1.547 17.225,-0.444 24.319,1.184 5.335,1.181 10.793,3.279 13.686,4.012 3.792,0.961 9.424,3.335 13.655,4.561 5.966,1.665 9.909,1.369 9.909,1.369"
            style="fill:none;stroke:currentColor;stroke-width:0.269685;stroke-opacity:1"
            id="path36474" />
         <path
            d="m -0.0312659,232.374 c 0,0 6.5055159,1.309 15.5092659,1.323 5.0664,-0.985 7.0035,0.129 12.3996,0.004 5.4668,-0.108 11.3112,4.329 15.0638,5.281 1.9678,0.498 5.8135,2.976 8.8395,3.22 2.7625,0.177 4.5169,0.807 8.2346,-0.083 7.3704,0.035 15.3967,-2.484 24.8939,-1.022 7.8994,1.056 13.0639,2.76 19.2776,6.581 7.52,4.151 17.257,7.1 25.087,8.808 6.513,1.375 14.98,0.208 19.026,1.234 5.826,1.476 17.281,-0.965 24.349,0.637 5.389,1.176 10.953,3.381 13.714,4.081 3.62,0.917 9.366,3.424 13.66,4.683 5.95,1.679 9.941,1.251 9.941,1.251"
            style="fill:none;stroke:currentColor;stroke-width:0.269685;stroke-opacity:1"
            id="path36476" />
         <path
            d="m -0.0307299,232.156 c 0,0 6.5933899,1.298 15.5563299,1.074 5.2132,-1.174 6.9287,-0.054 12.4041,-0.309 5.5428,-0.237 11.4537,4.513 15.0276,5.419 1.8741,0.475 5.8039,3.124 8.8238,3.314 2.7689,0.126 4.4225,0.749 8.2305,-0.301 7.2867,-0.169 15.2498,-3.16 24.812,-1.776 8.0406,0.998 13.0626,2.705 19.2394,6.74 7.42,4.351 17.28,7.38 25.064,9.049 6.531,1.351 15.225,-0.09 19.077,0.887 5.549,1.406 17.338,-1.484 24.38,0.092 5.442,1.171 11.113,3.481 13.742,4.148 3.447,0.873 9.308,3.515 13.665,4.807 5.934,1.691 9.973,1.132 9.973,1.132"
            style="fill:none;stroke:currentColor;stroke-width:0.269685;stroke-opacity:1"
            id="path36478" />
         <path
            d="m -0.030194,231.939 c 0,0 6.681264,1.286 15.603494,0.825 5.3599,-1.364 6.8538,-0.238 12.4085,-0.622 5.6187,-0.367 11.5962,4.695 14.9914,5.556 1.7804,0.451 5.7944,3.272 8.8081,3.408 2.7753,0.076 4.3281,0.692 8.2264,-0.519 7.2029,-0.374 15.1028,-3.836 24.7301,-2.53 8.1817,0.939 13.0613,2.649 19.2012,6.9 7.321,4.55 17.302,7.658 25.042,9.288 6.548,1.328 15.468,-0.386 19.128,0.541 5.272,1.336 17.395,-2.004 24.41,-0.454 5.496,1.166 11.272,3.583 13.77,4.216 3.275,0.83 9.25,3.605 13.67,4.93 5.918,1.705 10.005,1.014 10.005,1.014"
            style="fill:none;stroke:currentColor;stroke-width:0.269685;stroke-opacity:1"
            id="path36480" />
         <path
            d="m -0.0296581,231.721 c 0,0 6.7691481,1.275 15.6505581,0.577 5.5067,-1.554 6.779,-0.422 12.413,-0.935 5.6946,-0.497 11.7387,4.877 14.9552,5.693 1.6867,0.427 5.7848,3.419 8.7924,3.502 2.7817,0.025 4.2338,0.634 8.2222,-0.737 7.1193,-0.578 14.956,-4.512 24.6484,-3.284 8.3228,0.88 13.0599,2.594 19.1619,7.06 7.222,4.75 17.326,7.936 25.021,9.527 6.566,1.305 15.711,-0.683 19.179,0.195 4.994,1.266 17.451,-2.524 24.44,-0.999 5.55,1.16 11.432,3.683 13.798,4.283 3.103,0.787 9.192,3.696 13.675,5.054 5.901,1.717 10.037,0.894 10.037,0.894"
            style="fill:none;stroke:currentColor;stroke-width:0.269685;stroke-opacity:1"
            id="path36482" />
         <path
            d="m -0.0291222,231.504 c 0,0 6.8570222,1.263 15.6977222,0.327 5.6533,-1.743 6.7041,-0.605 12.4174,-1.247 5.7705,-0.628 11.8812,5.06 14.919,5.83 1.593,0.403 5.7753,3.567 8.7767,3.596 2.7881,-0.026 4.1394,0.576 8.2181,-0.955 7.0356,-0.783 14.8091,-5.187 24.5665,-4.038 8.464,0.822 13.0586,2.539 19.1237,7.22 7.122,4.949 17.349,8.215 24.998,9.766 6.584,1.282 15.956,-0.98 19.23,-0.15 4.717,1.195 17.508,-3.045 24.471,-1.545 5.604,1.155 11.591,3.784 13.826,4.35 2.931,0.743 9.134,3.786 13.68,5.177 5.885,1.731 10.069,0.776 10.069,0.776"
            style="fill:none;stroke:currentColor;stroke-width:0.269685;stroke-opacity:1"
            id="path36484" />
         <path
            d="m -0.0285863,231.286 c 0,0 6.9448963,1.251 15.7447863,0.079 5.8001,-1.933 6.6293,-0.789 12.4219,-1.56 5.8465,-0.758 12.0237,5.242 14.8828,5.967 1.4993,0.38 5.7657,3.715 8.761,3.69 2.7945,-0.076 4.045,0.519 8.2139,-1.173 6.9519,-0.987 14.6623,-5.863 24.4847,-4.792 8.6052,0.763 13.0574,2.483 19.0855,7.379 7.022,5.149 17.372,8.494 24.976,10.007 6.601,1.258 16.199,-1.278 19.281,-0.497 4.439,1.125 17.564,-3.565 24.501,-2.091 5.658,1.15 11.751,3.885 13.854,4.419 2.758,0.699 9.076,3.876 13.684,5.3 5.87,1.743 10.102,0.657 10.102,0.657"
            style="fill:none;stroke:currentColor;stroke-width:0.269685;stroke-opacity:1"
            id="path36486" />
         <path
            d="m -0.0280504,231.069 c 0,0 7.0327804,1.239 15.7919504,-0.17 5.9468,-2.123 6.5544,-0.973 12.4263,-1.873 5.9224,-0.888 12.1662,5.424 14.8466,6.104 1.4056,0.356 5.7561,3.863 8.7453,3.784 2.801,-0.127 3.9506,0.461 8.2098,-1.391 6.8682,-1.191 14.5153,-6.539 24.4029,-5.546 8.7463,0.704 13.056,2.428 19.0462,7.539 6.924,5.348 17.396,8.772 24.955,10.246 6.618,1.235 16.442,-1.575 19.332,-0.843 4.162,1.055 17.62,-4.084 24.531,-2.636 5.711,1.144 11.91,3.986 13.882,4.486 2.586,0.655 9.018,3.966 13.689,5.423 5.854,1.757 10.134,0.539 10.134,0.539"
            style="fill:none;stroke:currentColor;stroke-width:0.269685;stroke-opacity:1"
            id="path36488" />
         <path
            d="m -0.0275144,230.851 c 0,0 7.1206544,1.228 15.8390144,-0.419 6.0935,-2.312 6.4796,-1.156 12.4308,-2.185 5.9983,-1.018 12.3087,5.607 14.8104,6.241 1.3119,0.332 5.7466,4.011 8.7296,3.878 2.8074,-0.178 3.8562,0.403 8.2057,-1.609 6.7845,-1.396 14.3684,-7.215 24.321,-6.3 8.8875,0.646 13.0547,2.373 19.008,7.699 6.824,5.547 17.419,9.051 24.932,10.485 6.636,1.212 16.687,-1.872 19.383,-1.188 3.885,0.984 17.677,-4.605 24.562,-3.183 5.765,1.139 12.07,4.087 13.911,4.554 2.413,0.612 8.959,4.057 13.693,5.547 5.838,1.769 10.166,0.42 10.166,0.42"
            style="fill:none;stroke:currentColor;stroke-width:0.269685;stroke-opacity:1"
            id="path36490" />
         <path
            d="m -0.0269785,230.634 c 0,0 7.2085285,1.216 15.8861785,-0.668 6.2402,-2.502 6.4047,-1.339 12.4352,-2.498 6.0742,-1.148 12.4512,5.789 14.7742,6.378 1.2182,0.308 5.737,4.159 8.7139,3.972 2.8138,-0.228 3.7618,0.346 8.2015,-1.828 6.7008,-1.599 14.2216,-7.89 24.2393,-7.053 9.0286,0.587 13.0533,2.317 18.9697,7.859 6.724,5.746 17.442,9.329 24.91,10.724 6.653,1.189 16.93,-2.169 19.434,-1.534 3.607,0.914 17.734,-5.125 24.592,-3.728 5.819,1.134 12.23,4.188 13.939,4.621 2.24,0.568 8.902,4.148 13.698,5.67 5.822,1.783 10.198,0.302 10.198,0.302"
            style="fill:none;stroke:currentColor;stroke-width:0.269685;stroke-opacity:1"
            id="path36492" />
         <path
            d="m -0.0264426,230.416 c 0,0 7.2964126,1.205 15.9332426,-0.917 6.387,-2.691 6.3299,-1.522 12.4397,-2.811 6.1502,-1.277 12.5937,5.972 14.738,6.516 1.1245,0.285 5.7275,4.307 8.6982,4.066 2.8202,-0.279 3.6675,0.288 8.1974,-2.046 6.6171,-1.804 14.0747,-8.566 24.1574,-7.807 9.1698,0.528 13.0521,2.262 18.9305,8.019 6.625,5.945 17.466,9.607 24.889,10.964 6.67,1.165 17.173,-2.467 19.485,-1.881 3.329,0.844 17.79,-5.645 24.622,-4.273 5.873,1.128 12.389,4.288 13.967,4.688 2.068,0.525 8.844,4.238 13.703,5.794 5.805,1.796 10.23,0.183 10.23,0.183"
            style="fill:none;stroke:currentColor;stroke-width:0.269685;stroke-opacity:1"
            id="path36494" />
         <path
            d="m -0.0259067,230.199 c 0,0 7.3842867,1.192 15.9804067,-1.166 6.5337,-2.881 6.255,-1.706 12.4441,-3.124 6.2261,-1.408 12.7362,6.154 14.7018,6.653 1.0308,0.261 5.7179,4.455 8.6825,4.16 2.8266,-0.33 3.5731,0.23 8.1932,-2.264 6.5335,-2.008 13.9278,-9.242 24.0756,-8.561 9.3109,0.469 13.0508,2.207 18.8923,8.178 6.526,6.146 17.489,9.887 24.866,11.204 6.688,1.142 17.418,-2.763 19.536,-2.226 3.052,0.773 17.847,-6.166 24.653,-4.82 5.927,1.123 12.549,4.39 13.995,4.757 1.896,0.48 8.786,4.328 13.708,5.916 5.789,1.809 10.262,0.064 10.262,0.064"
            style="fill:none;stroke:currentColor;stroke-width:0.269685;stroke-opacity:1"
            id="path36496" />
         <path
            d="m -0.0253708,229.981 c 0,0 7.4721608,1.181 16.0274708,-1.414 6.6804,-3.071 6.1802,-1.89 12.4486,-3.437 6.302,-1.538 12.8787,6.337 14.6656,6.79 0.9371,0.237 5.7084,4.602 8.6668,4.254 2.833,-0.38 3.4787,0.172 8.1891,-2.482 6.4497,-2.213 13.7809,-9.918 23.9938,-9.315 9.452,0.411 13.0494,2.151 18.854,8.338 6.426,6.345 17.511,10.165 24.844,11.443 6.705,1.119 17.661,-3.06 19.587,-2.572 2.775,0.703 17.903,-6.685 24.683,-5.365 5.98,1.118 12.708,4.491 14.023,4.824 1.724,0.437 8.728,4.418 13.713,6.04 5.773,1.822 10.294,-0.055 10.294,-0.055"
            style="fill:none;stroke:currentColor;stroke-width:0.269685;stroke-opacity:1"
            id="path36498" />
         <path
            d="m -0.0248348,229.764 c 0,0 7.5600448,1.169 16.0746348,-1.664 6.8271,-3.26 6.1053,-2.073 12.453,-3.749 6.3779,-1.668 13.0212,6.519 14.6294,6.927 0.8434,0.213 5.6988,4.75 8.6511,4.348 2.8394,-0.431 3.3843,0.115 8.185,-2.7 6.366,-2.417 13.634,-10.593 23.9119,-10.068 9.5932,0.351 13.0481,2.095 18.8148,8.497 6.327,6.544 17.535,10.444 24.823,11.682 6.723,1.096 17.904,-3.357 19.638,-2.918 2.497,0.633 17.959,-7.205 24.713,-5.91 6.034,1.112 12.868,4.591 14.051,4.891 1.551,0.393 8.67,4.509 13.718,6.164 5.757,1.834 10.327,-0.174 10.327,-0.174"
            style="fill:none;stroke:currentColor;stroke-width:0.269685;stroke-opacity:1"
            id="path36500" />
         <path
            d="m -0.0242989,229.546 c 0,0 7.6479189,1.158 16.1216989,-1.912 6.9739,-3.45 6.0305,-2.257 12.4575,-4.062 6.4539,-1.798 13.1637,6.701 14.5932,7.064 0.7497,0.19 5.6893,4.898 8.6354,4.442 2.8458,-0.482 3.2899,0.057 8.1808,-2.918 6.2824,-2.622 13.4871,-11.269 23.8302,-10.822 9.7343,0.292 13.0468,2.04 18.7765,8.657 6.227,6.743 17.558,10.722 24.8,11.922 6.741,1.072 18.149,-3.655 19.69,-3.264 2.219,0.562 18.016,-7.726 24.743,-6.457 6.088,1.107 13.027,4.693 14.079,4.959 1.379,0.35 8.612,4.599 13.722,6.287 5.742,1.848 10.36,-0.292 10.36,-0.292"
            style="fill:none;stroke:currentColor;stroke-width:0.269685;stroke-opacity:1"
            id="path36502" />
         <path
            d="m -0.023763,229.329 c 0,0 7.735793,1.146 16.168863,-2.161 7.1206,-3.64 5.9556,-2.441 12.4619,-4.375 6.5298,-1.928 13.3062,6.884 14.557,7.201 0.656,0.166 5.6797,5.046 8.6197,4.536 2.8522,-0.532 3.1955,-0.001 8.1767,-3.136 6.1986,-2.826 13.3402,-11.945 23.7483,-11.576 9.8755,0.234 13.0455,1.984 18.7383,8.817 6.128,6.942 17.581,11 24.778,12.161 6.758,1.05 18.392,-3.952 19.74,-3.61 1.942,0.492 18.073,-8.246 24.774,-7.002 6.142,1.101 13.187,4.793 14.107,5.026 1.207,0.306 8.554,4.69 13.727,6.411 5.725,1.86 10.392,-0.411 10.392,-0.411"
            style="fill:none;stroke:currentColor;stroke-width:0.269685;stroke-opacity:1"
            id="path36504" />
         <path
            d="m -0.0232271,229.111 c 0,0 7.8236771,1.135 16.2159271,-2.41 7.2673,-3.829 5.8808,-2.624 12.4664,-4.687 6.6057,-2.059 13.4487,7.066 14.5208,7.338 0.5623,0.142 5.6702,5.194 8.604,4.63 2.8586,-0.583 3.1012,-0.058 8.1725,-3.354 6.115,-3.031 13.1934,-12.621 23.6665,-12.33 10.0167,0.175 13.0442,1.929 18.6991,8.976 6.029,7.142 17.605,11.28 24.756,12.401 6.776,1.027 18.636,-4.249 19.792,-3.956 1.665,0.422 18.129,-8.766 24.804,-7.548 6.196,1.097 13.346,4.895 14.135,5.095 1.035,0.262 8.496,4.78 13.732,6.533 5.709,1.874 10.424,-0.529 10.424,-0.529"
            style="fill:none;stroke:currentColor;stroke-width:0.269685;stroke-opacity:1"
            id="path36506" />
         <path
            d="m -0.0226912,228.894 c 0,0 7.9115512,1.122 16.2630912,-2.659 7.414,-4.019 5.8059,-2.808 12.4708,-5 6.6817,-2.189 13.5912,7.248 14.4846,7.475 0.4686,0.118 5.6606,5.342 8.5883,4.724 2.865,-0.634 3.0068,-0.116 8.1684,-3.572 6.0313,-3.235 13.0465,-13.297 23.5847,-13.084 10.1578,0.116 13.0428,1.874 18.6608,9.136 5.929,7.341 17.628,11.558 24.734,12.641 6.793,1.003 18.879,-4.547 19.843,-4.303 1.387,0.352 18.185,-9.285 24.834,-8.093 6.249,1.091 13.506,4.995 14.163,5.162 0.862,0.218 8.438,4.87 13.737,6.657 5.693,1.886 10.456,-0.649 10.456,-0.649"
            style="fill:none;stroke:currentColor;stroke-width:0.269685;stroke-opacity:1"
            id="path36508" />
         <path
            d="m -0.0221552,228.676 c 0,0 7.9994352,1.111 16.3101552,-2.907 7.5608,-4.209 5.7312,-2.992 12.4753,-5.314 6.7576,-2.318 13.7337,7.432 14.4484,7.613 0.3749,0.095 5.6511,5.49 8.5726,4.818 2.8714,-0.684 2.9124,-0.174 8.1643,-3.79 5.9476,-3.44 12.8995,-13.973 23.5028,-13.838 10.299,0.058 13.0415,1.818 18.6226,9.296 5.829,7.541 17.651,11.836 24.712,12.88 6.81,0.98 19.123,-4.844 19.893,-4.648 1.11,0.281 18.242,-9.806 24.865,-8.639 6.303,1.085 13.666,5.096 14.191,5.229 0.69,0.175 8.38,4.961 13.742,6.78 5.677,1.9 10.488,-0.767 10.488,-0.767"
            style="fill:none;stroke:currentColor;stroke-width:0.269685;stroke-opacity:1"
            id="path36510" />
         <path
            d="m -0.0216193,228.459 c 0,0 8.0873093,1.099 16.3572193,-3.157 7.7075,-4.398 5.6564,-3.175 12.4798,-5.626 6.8335,-2.448 13.8762,7.614 14.4122,7.75 0.2812,0.071 5.6415,5.637 8.5569,4.912 2.8778,-0.735 2.818,-0.231 8.1601,-4.008 5.8639,-3.644 12.7527,-14.649 23.4211,-14.592 10.4401,-0.001 13.0402,1.763 18.5833,9.456 5.73,7.74 17.675,12.115 24.69,13.119 6.828,0.957 19.367,-5.14 19.945,-4.994 0.832,0.211 18.299,-10.326 24.895,-9.185 6.357,1.081 13.825,5.197 14.22,5.297 0.517,0.131 8.321,5.051 13.746,6.904 5.661,1.912 10.52,-0.886 10.52,-0.886"
            style="fill:none;stroke:currentColor;stroke-width:0.269685;stroke-opacity:1"
            id="path36512" />
         <path
            d="m -0.0210834,228.241 c 0,0 8.1751834,1.088 16.4043834,-3.405 7.8542,-4.588 5.5815,-3.359 12.4842,-5.939 6.9094,-2.578 14.0187,7.796 14.376,7.887 0.1875,0.047 5.632,5.785 8.5412,5.006 2.8842,-0.786 2.7236,-0.289 8.156,-4.226 5.7802,-3.849 12.6058,-15.325 23.3392,-15.346 10.5812,-0.06 13.0389,1.708 18.5451,9.615 5.631,7.94 17.697,12.394 24.668,13.359 6.845,0.934 19.61,-5.437 19.996,-5.34 0.555,0.141 18.355,-10.846 24.925,-9.73 6.411,1.075 13.985,5.298 14.248,5.364 0.344,0.088 8.263,5.142 13.751,7.027 5.645,1.926 10.552,-1.004 10.552,-1.004"
            style="fill:none;stroke:currentColor;stroke-width:0.269685;stroke-opacity:1"
            id="path36514" />
         <path
            d="m -0.0205475,228.024 c 0,0 8.2630675,1.076 16.4514475,-3.655 8.001,-4.777 5.5067,-3.542 12.4887,-6.251 6.9854,-2.708 14.1612,7.978 14.3398,8.024 0.0938,0.023 5.6224,5.933 8.5255,5.1 2.8906,-0.836 2.6292,-0.347 8.1518,-4.444 5.6966,-4.053 12.4589,-16.001 23.2574,-16.1 10.7224,-0.119 13.0376,1.652 18.5069,9.775 5.531,8.139 17.72,12.672 24.646,13.599 6.863,0.91 19.854,-5.735 20.046,-5.686 0.278,0.07 18.412,-11.367 24.956,-10.277 6.465,1.07 14.144,5.399 14.276,5.433 0.172,0.043 8.205,5.231 13.756,7.15 5.628,1.938 10.584,-1.123 10.584,-1.123"
            style="fill:none;stroke:currentColor;stroke-width:0.269685;stroke-opacity:1"
            id="path36516" />
      </g>
      <g
         id="g36580"
         transform="translate(0.01534854,-142.86665)">
         <path
            d="m -0.0219371,226.913 c 0,0 6.2718471,0.8 13.2406371,-2.226 1.1354,-0.496 2.2704,-1.075 3.3914,-1.759 3.5422,-2.162 4.9698,-3.108 6.2417,-3.815 1.5132,-0.862 2.4509,-1.117 6.3845,-2.608 2.2706,-0.786 4.5262,-0.194 6.4941,0.854 2.3436,1.248 4.5599,3.518 6.0203,5.098 1.156,1.303 1.8577,2.297 1.8977,2.279 0.0561,-0.025 1.8566,1.827 3.9423,3.251 1.5773,1.108 3.32,1.938 4.5706,1.473 2.8412,-0.958 2.5312,-0.621 8.0062,-4.884 5.5621,-4.55 12.2015,-17.106 22.8999,-17.421 0.8712,-0.037 1.6894,-0.052 2.4604,-0.04 8.6876,0.144 10.9464,2.533 15.8542,10.32 3.418,5.47 9.531,9.489 15.294,11.828 3.321,1.407 6.484,2.281 8.971,2.648 1.658,0.249 3.676,0.043 5.814,-0.411 4.48,-0.945 9.423,-3.102 12.109,-4.361 1.396,-0.655 2.294,-1.131 2.349,-1.168 0.19,-0.127 11.335,-7.296 19.262,-9.907 2.352,-0.757 4.452,-1.132 5.946,-0.864 1.617,0.299 3.273,0.79 4.807,1.308 4.858,1.642 9.396,4.258 9.579,4.344 0.116,0.054 3.036,1.919 6.518,3.764 2.387,1.232 5.072,2.443 7.354,3.116 5.592,1.73 10.58,-1.54 10.58,-1.54"
            style="fill:none;stroke:currentColor;stroke-width:0.267274;stroke-opacity:1"
            id="path36520" />
         <path
            d="m -0.0238626,226.02 c 0,0 6.3412326,0.809 13.3493626,-2.282 1.1596,-0.517 2.3001,-1.104 3.4162,-1.786 3.5336,-2.157 4.9012,-3.064 6.3123,-3.821 1.5601,-0.872 2.5638,-1.078 6.4469,-2.461 2.3095,-0.674 4.5711,0.024 6.4734,1.038 2.2655,1.206 4.5829,3.607 6.0912,5.105 1.1577,1.247 1.876,2.195 1.956,2.159 0.1121,-0.05 1.9133,1.703 3.9973,3.021 1.5558,1.044 3.2739,1.778 4.5187,1.234 2.7854,-1.03 2.5274,-0.839 7.8647,-5.107 5.5114,-4.842 12.091,-17.535 22.6242,-17.989 0.8732,-0.06 1.6959,-0.087 2.4739,-0.076 8.5899,0.135 10.8687,2.8 15.6867,10.701 3.37,5.621 9.329,9.854 14.985,12.246 3.312,1.517 6.437,2.457 8.922,2.869 1.665,0.286 3.686,0.11 5.853,-0.316 4.56,-0.884 9.634,-3.123 12.23,-4.34 1.35,-0.633 2.253,-1.118 2.363,-1.192 0.379,-0.254 11.608,-7.473 19.44,-9.969 2.36,-0.718 4.475,-1.046 5.99,-0.752 1.669,0.343 3.343,0.875 4.826,1.376 4.696,1.588 9.276,4.258 9.643,4.428 0.232,0.108 3.173,1.946 6.606,3.694 2.385,1.149 5.078,2.235 7.377,2.793 5.57,1.509 10.543,-1.837 10.543,-1.837"
            style="fill:none;stroke:currentColor;stroke-width:0.267274;stroke-opacity:1"
            id="path36522" />
         <path
            d="m -0.0257881,225.128 c 0,0 6.4106081,0.817 13.4581881,-2.339 1.1838,-0.538 2.3296,-1.133 3.4408,-1.812 3.5251,-2.154 4.8328,-3.021 6.3831,-3.827 1.6069,-0.883 2.6766,-1.041 6.5093,-2.314 2.3484,-0.563 4.6158,0.242 6.4526,1.22 2.1873,1.166 4.6059,3.698 6.1622,5.113 1.1593,1.192 1.8942,2.093 2.0141,2.039 0.1683,-0.075 1.97,1.58 4.0523,2.791 1.5344,0.981 3.2279,1.618 4.4669,0.994 2.7296,-1.101 2.5237,-1.057 7.7232,-5.33 5.4607,-5.132 11.9804,-17.963 22.3485,-18.555 0.8752,-0.083 1.7025,-0.124 2.4873,-0.113 8.4924,0.127 10.7912,3.066 15.5203,11.083 3.321,5.771 9.125,10.219 14.674,12.663 3.304,1.627 6.391,2.632 8.874,3.091 1.672,0.322 3.696,0.176 5.892,-0.223 4.64,-0.822 9.844,-3.143 12.352,-4.318 1.303,-0.611 2.211,-1.105 2.375,-1.216 0.57,-0.38 11.882,-7.65 19.618,-10.032 2.37,-0.678 4.499,-0.959 6.035,-0.638 1.721,0.387 3.414,0.959 4.846,1.443 4.534,1.533 9.155,4.257 9.705,4.513 0.348,0.162 3.31,1.973 6.696,3.622 2.382,1.068 5.083,2.028 7.399,2.472 5.548,1.287 10.506,-2.136 10.506,-2.136"
            style="fill:none;stroke:currentColor;stroke-width:0.267274;stroke-opacity:1"
            id="path36524" />
         <path
            d="m -0.0277136,224.235 c 0,0 6.4799836,0.826 13.5669136,-2.394 1.2081,-0.56 2.3592,-1.163 3.4655,-1.839 3.5166,-2.151 4.7643,-2.979 6.4539,-3.834 1.6537,-0.893 2.7894,-1.003 6.5716,-2.166 2.3873,-0.452 4.6607,0.46 6.4318,1.403 2.1093,1.124 4.6291,3.787 6.2332,5.121 1.1611,1.135 1.9125,1.99 2.0724,1.918 0.2243,-0.1 2.0267,1.457 4.1073,2.562 1.513,0.916 3.1818,1.457 4.4149,0.753 2.6739,-1.172 2.5201,-1.274 7.5818,-5.552 5.41,-5.424 11.8699,-18.392 22.0728,-19.123 0.8772,-0.105 1.709,-0.159 2.5007,-0.15 8.3949,0.12 10.7137,3.333 15.3529,11.466 3.274,5.921 8.923,10.583 14.365,13.08 3.295,1.737 6.344,2.808 8.825,3.312 1.679,0.359 3.706,0.242 5.93,-0.128 4.72,-0.761 10.056,-3.164 12.474,-4.297 1.256,-0.589 2.17,-1.092 2.389,-1.239 0.759,-0.508 12.156,-7.827 19.796,-10.095 2.378,-0.638 4.522,-0.873 6.08,-0.525 1.772,0.43 3.484,1.044 4.865,1.511 4.372,1.478 9.034,4.255 9.767,4.597 0.465,0.216 3.448,1.999 6.785,3.551 2.38,0.985 5.089,1.82 7.422,2.149 5.527,1.066 10.469,-2.433 10.469,-2.433"
            style="fill:none;stroke:currentColor;stroke-width:0.267274;stroke-opacity:1"
            id="path36526" />
         <path
            d="m -0.029639,223.342 c 0,0 6.549369,0.835 13.675639,-2.45 1.2324,-0.582 2.3889,-1.191 3.4903,-1.865 3.508,-2.148 4.6958,-2.936 6.5245,-3.841 1.7006,-0.903 2.9022,-0.965 6.634,-2.018 2.4263,-0.34 4.7056,0.677 6.4111,1.586 2.0311,1.082 4.6521,3.877 6.3042,5.128 1.1627,1.08 1.9306,1.888 2.1306,1.799 0.2803,-0.126 2.0833,1.333 4.1623,2.331 1.4915,0.852 3.1357,1.297 4.363,0.514 2.6181,-1.245 2.5164,-1.492 7.4403,-5.775 5.3593,-5.716 11.7594,-18.821 21.7971,-19.69 0.8792,-0.129 1.7155,-0.195 2.5142,-0.187 8.2972,0.112 10.6361,3.6 15.1864,11.847 3.225,6.071 8.719,10.949 14.055,13.498 3.286,1.847 6.298,2.983 8.776,3.533 1.686,0.396 3.716,0.309 5.969,-0.033 4.8,-0.7 10.267,-3.185 12.595,-4.276 1.21,-0.568 2.128,-1.079 2.403,-1.263 0.949,-0.635 12.429,-8.004 19.973,-10.157 2.387,-0.599 4.546,-0.787 6.125,-0.412 1.824,0.473 3.555,1.128 4.884,1.578 4.211,1.423 8.914,4.255 9.831,4.682 0.58,0.27 3.585,2.025 6.873,3.48 2.378,0.903 5.096,1.612 7.445,1.827 5.505,0.844 10.432,-2.732 10.432,-2.732"
            style="fill:none;stroke:currentColor;stroke-width:0.267274;stroke-opacity:1"
            id="path36528" />
         <path
            d="m -0.0315645,222.449 c 0,0 6.6187445,0.844 13.7843645,-2.506 1.2567,-0.603 2.4185,-1.22 3.515,-1.892 3.4995,-2.144 4.6273,-2.892 6.5953,-3.847 1.7474,-0.913 3.015,-0.927 6.6963,-1.871 2.4652,-0.228 4.7504,0.896 6.3903,1.77 1.953,1.04 4.6752,3.966 6.3752,5.135 1.1644,1.024 1.9489,1.786 2.1888,1.679 0.3365,-0.151 2.1401,1.209 4.2173,2.101 1.4701,0.789 3.0897,1.137 4.3112,0.274 2.5622,-1.316 2.5127,-1.709 7.2988,-5.997 5.3086,-6.008 11.6488,-19.25 21.5214,-20.258 0.8812,-0.151 1.722,-0.231 2.5276,-0.223 8.1997,0.104 10.5586,3.866 15.019,12.229 3.177,6.221 8.517,11.313 13.745,13.916 3.278,1.955 6.252,3.158 8.728,3.754 1.693,0.432 3.726,0.375 6.008,0.061 4.88,-0.639 10.478,-3.206 12.717,-4.255 1.163,-0.546 2.086,-1.066 2.416,-1.287 1.138,-0.762 12.702,-8.181 20.151,-10.219 2.395,-0.56 4.57,-0.702 6.169,-0.3 1.877,0.518 3.626,1.214 4.904,1.646 4.048,1.368 8.793,4.254 9.893,4.766 0.696,0.325 3.723,2.052 6.962,3.41 2.377,0.82 5.102,1.404 7.467,1.504 5.485,0.624 10.395,-3.03 10.395,-3.03"
            style="fill:none;stroke:currentColor;stroke-width:0.267274;stroke-opacity:1"
            id="path36530" />
         <path
            d="m -0.03349,221.556 c 0,0 6.68812,0.853 13.89309,-2.562 1.281,-0.624 2.4481,-1.249 3.5397,-1.918 3.491,-2.14 4.5589,-2.85 6.6661,-3.853 1.7941,-0.925 3.1278,-0.89 6.7587,-1.724 2.504,-0.117 4.7952,1.114 6.3695,1.952 1.8749,0.999 4.6983,4.057 6.4462,5.143 1.166,0.969 1.9671,1.685 2.247,1.559 0.3925,-0.177 2.1967,1.086 4.2723,1.872 1.4487,0.724 3.0436,0.976 4.2592,0.033 2.5065,-1.387 2.5091,-1.926 7.1574,-6.219 5.2579,-6.3 11.5383,-19.68 21.2457,-20.825 0.8832,-0.175 1.7286,-0.267 2.5411,-0.26 8.1021,0.096 10.481,4.132 14.8525,12.611 3.128,6.371 8.314,11.677 13.435,14.333 3.269,2.065 6.205,3.333 8.679,3.975 1.7,0.469 3.736,0.442 6.047,0.156 4.96,-0.579 10.689,-3.227 12.838,-4.234 1.117,-0.524 2.045,-1.054 2.43,-1.311 1.328,-0.889 12.975,-8.358 20.328,-10.281 2.404,-0.521 4.594,-0.616 6.214,-0.187 1.929,0.561 3.697,1.298 4.924,1.713 3.886,1.314 8.673,4.254 9.956,4.851 0.812,0.378 3.859,2.078 7.051,3.338 2.374,0.739 5.107,1.197 7.489,1.182 5.463,0.403 10.358,-3.327 10.358,-3.327"
            style="fill:none;stroke:currentColor;stroke-width:0.267274;stroke-opacity:1"
            id="path36532" />
         <path
            d="m -0.0354155,220.663 c 0,0 6.7574955,0.862 14.0019155,-2.617 1.3052,-0.646 2.4777,-1.279 3.5643,-1.945 3.4825,-2.137 4.4905,-2.807 6.7368,-3.86 1.841,-0.935 3.2407,-0.852 6.8211,-1.576 2.543,-0.006 4.84,1.332 6.3488,2.135 1.7967,0.957 4.7213,4.146 6.5171,5.151 1.1677,0.912 1.9854,1.582 2.3052,1.438 0.4486,-0.202 2.2535,0.963 4.3274,1.642 1.4272,0.66 2.9975,0.816 4.2073,-0.206 2.4507,-1.459 2.5054,-2.144 7.0159,-6.443 5.2072,-6.591 11.4278,-20.108 20.97,-21.392 0.8851,-0.197 1.7351,-0.302 2.5545,-0.297 8.0045,0.088 10.4035,4.4 14.6851,12.994 3.081,6.52 8.111,12.042 13.125,14.75 3.261,2.175 6.159,3.508 8.631,4.196 1.707,0.506 3.746,0.508 6.085,0.251 5.041,-0.518 10.901,-3.248 12.96,-4.213 1.07,-0.502 2.004,-1.041 2.444,-1.335 1.517,-1.015 13.249,-8.534 20.506,-10.344 2.412,-0.48 4.617,-0.529 6.258,-0.073 1.981,0.604 3.767,1.383 4.943,1.78 3.725,1.259 8.553,4.253 10.019,4.936 0.928,0.432 3.997,2.105 7.14,3.267 2.372,0.656 5.113,0.989 7.512,0.86 5.442,0.181 10.321,-3.626 10.321,-3.626"
            style="fill:none;stroke:currentColor;stroke-width:0.267274;stroke-opacity:1"
            id="path36534" />
         <path
            d="m -0.037341,219.771 c 0,0 6.826881,0.87 14.110641,-2.674 1.3295,-0.667 2.5073,-1.308 3.5891,-1.972 3.4739,-2.133 4.4219,-2.763 6.8075,-3.866 1.8878,-0.945 3.3535,-0.814 6.8834,-1.429 2.5819,0.106 4.8849,1.55 6.328,2.319 1.7187,0.915 4.7445,4.236 6.5882,5.158 1.1694,0.857 2.0035,1.48 2.3634,1.318 0.5047,-0.227 2.3102,0.84 4.3823,1.412 1.4058,0.597 2.9514,0.656 4.1555,-0.446 2.3949,-1.53 2.5017,-2.361 6.8744,-6.665 5.1565,-6.883 11.3172,-20.537 20.6943,-21.959 0.8871,-0.22 1.7416,-0.339 2.568,-0.334 7.9069,0.08 10.3259,4.666 14.5181,13.375 3.0325,6.671 7.9085,12.407 12.8155,15.168 3.252,2.285 6.112,3.684 8.582,4.418 1.714,0.542 3.756,0.574 6.124,0.344 5.12,-0.456 11.111,-3.268 13.082,-4.191 1.023,-0.48 1.962,-1.028 2.456,-1.359 1.708,-1.142 13.523,-8.711 20.684,-10.406 2.421,-0.441 4.641,-0.443 6.303,0.039 2.033,0.649 3.838,1.468 4.963,1.848 3.563,1.205 8.432,4.253 10.081,5.021 1.045,0.486 4.135,2.131 7.229,3.196 2.37,0.574 5.119,0.781 7.535,0.537 5.42,-0.04 10.284,-3.923 10.284,-3.923"
            style="fill:none;stroke:currentColor;stroke-width:0.267274;stroke-opacity:1"
            id="path36536" />
         <path
            d="m -0.0392665,218.878 c 0,0 6.8962565,0.879 14.2193665,-2.73 1.3538,-0.688 2.5369,-1.336 3.6138,-1.998 3.4654,-2.13 4.3535,-2.721 6.8783,-3.873 1.9346,-0.955 3.4663,-0.776 6.9457,-1.281 2.6209,0.217 4.9298,1.768 6.3073,2.502 1.6405,0.874 4.7675,4.325 6.6591,5.165 1.1711,0.801 2.0218,1.378 2.4217,1.198 0.5607,-0.252 2.3668,0.717 4.4373,1.183 1.3843,0.532 2.9053,0.496 4.1036,-0.687 2.3391,-1.601 2.498,-2.578 6.733,-6.887 5.1057,-7.175 11.2066,-20.966 20.4185,-22.527 0.8891,-0.243 1.7482,-0.374 2.5814,-0.37 7.8094,0.072 10.2484,4.932 14.3512,13.757 2.984,6.821 7.705,12.772 12.506,15.585 3.243,2.395 6.066,3.859 8.533,4.639 1.721,0.578 3.766,0.641 6.163,0.439 5.2,-0.395 11.322,-3.289 13.203,-4.17 0.977,-0.459 1.921,-1.015 2.47,-1.383 1.897,-1.269 13.796,-8.888 20.862,-10.468 2.429,-0.402 4.664,-0.357 6.347,0.152 2.085,0.692 3.909,1.552 4.983,1.915 3.4,1.15 8.311,4.252 10.144,5.105 1.16,0.541 4.271,2.158 7.318,3.126 2.368,0.491 5.124,0.573 7.557,0.215 5.398,-0.262 10.247,-4.222 10.247,-4.222"
            style="fill:none;stroke:currentColor;stroke-width:0.267274;stroke-opacity:1"
            id="path36538" />
         <path
            d="m -0.041192,217.985 c 0,0 6.965632,0.888 14.328092,-2.785 1.378,-0.71 2.5665,-1.366 3.6385,-2.025 3.4569,-2.127 4.285,-2.678 6.9491,-3.879 1.9814,-0.966 3.5791,-0.739 7.0081,-1.134 2.6597,0.328 4.9745,1.986 6.2864,2.685 1.5624,0.832 4.7906,4.415 6.7302,5.172 1.1727,0.746 2.04,1.276 2.4798,1.078 0.6168,-0.277 2.4236,0.593 4.4923,0.953 1.363,0.468 2.8593,0.336 4.0517,-0.926 2.2834,-1.673 2.4944,-2.796 6.5916,-7.11 5.055,-7.466 11.0961,-21.395 20.1428,-23.094 0.8911,-0.266 1.7547,-0.41 2.5949,-0.407 7.7117,0.064 10.1707,5.198 14.1841,14.139 2.9356,6.97 7.5026,13.136 12.1956,16.002 3.235,2.505 6.02,4.035 8.485,4.86 1.728,0.615 3.776,0.708 6.201,0.534 5.281,-0.334 11.534,-3.31 13.325,-4.149 0.931,-0.437 1.88,-1.002 2.484,-1.406 2.087,-1.397 14.069,-9.066 21.039,-10.531 2.438,-0.363 4.689,-0.272 6.392,0.265 2.138,0.735 3.98,1.637 5.002,1.983 3.239,1.094 8.191,4.25 10.207,5.189 1.277,0.595 4.409,2.184 7.407,3.054 2.366,0.41 5.13,0.366 7.58,-0.107 5.377,-0.483 10.21,-4.519 10.21,-4.519"
            style="fill:none;stroke:currentColor;stroke-width:0.267274;stroke-opacity:1"
            id="path36540" />
         <path
            d="m -0.0431175,217.092 c 0,0 7.0350175,0.897 14.4369175,-2.841 1.4022,-0.731 2.5961,-1.395 3.6632,-2.052 3.4483,-2.122 4.2165,-2.634 7.0197,-3.885 2.0283,-0.976 3.6919,-0.701 7.0705,-0.986 2.6987,0.439 5.0194,2.203 6.2657,2.867 1.4843,0.791 4.8137,4.505 6.8011,5.181 1.1744,0.689 2.0583,1.173 2.5381,0.958 0.6729,-0.303 2.4802,0.469 4.5473,0.722 1.3415,0.404 2.8132,0.176 3.9998,-1.166 2.2276,-1.744 2.4907,-3.014 6.4501,-7.332 5.0043,-7.758 10.9855,-21.824 19.8671,-23.662 0.8931,-0.289 1.7612,-0.446 2.6083,-0.444 7.6142,0.057 10.0932,5.466 14.0172,14.521 2.8881,7.121 7.3001,13.502 11.8861,16.42 3.226,2.615 5.973,4.21 8.436,5.081 1.735,0.652 3.785,0.775 6.24,0.629 5.361,-0.273 11.745,-3.331 13.446,-4.128 0.885,-0.415 1.838,-0.989 2.498,-1.43 2.276,-1.524 14.343,-9.242 21.217,-10.593 2.446,-0.324 4.712,-0.186 6.436,0.377 2.19,0.78 4.051,1.722 5.022,2.051 3.077,1.04 8.07,4.25 10.27,5.274 1.392,0.648 4.546,2.21 7.495,2.983 2.364,0.328 5.136,0.158 7.603,-0.429 5.355,-0.705 10.173,-4.818 10.173,-4.818"
            style="fill:none;stroke:currentColor;stroke-width:0.267274;stroke-opacity:1"
            id="path36542" />
         <path
            d="m -0.045043,216.199 c 0,0 7.104393,0.906 14.545643,-2.897 1.4265,-0.752 2.6257,-1.424 3.6879,-2.078 3.4398,-2.119 4.148,-2.592 7.0905,-3.892 2.075,-0.986 3.8047,-0.663 7.1328,-0.839 2.7376,0.552 5.0642,2.422 6.245,3.051 1.4061,0.749 4.8367,4.595 6.8721,5.188 1.1761,0.634 2.0765,1.071 2.5963,0.838 0.7289,-0.328 2.5369,0.346 4.6023,0.493 1.32,0.34 2.7671,0.015 3.9479,-1.407 2.1718,-1.815 2.487,-3.231 6.3086,-7.554 4.9536,-8.05 10.875,-22.254 19.5914,-24.229 0.8951,-0.312 1.7678,-0.482 2.6217,-0.481 7.5167,0.048 10.0157,5.732 13.8502,14.903 2.8397,7.271 7.0967,13.866 11.5757,16.837 3.218,2.725 5.927,4.386 8.388,5.303 1.742,0.688 3.795,0.84 6.279,0.723 5.441,-0.212 11.956,-3.352 13.568,-4.107 0.837,-0.393 1.796,-0.976 2.511,-1.454 2.466,-1.65 14.616,-9.419 21.394,-10.656 2.456,-0.283 4.736,-0.099 6.481,0.491 2.242,0.823 4.121,1.807 5.042,2.118 2.915,0.985 7.949,4.249 10.332,5.359 1.508,0.702 4.684,2.236 7.585,2.912 2.361,0.245 5.141,-0.05 7.624,-0.752 5.335,-0.926 10.137,-5.115 10.137,-5.115"
            style="fill:none;stroke:currentColor;stroke-width:0.267274;stroke-opacity:1"
            id="path36544" />
         <path
            d="m -0.0469685,215.306 c 0,0 7.1737685,0.915 14.6543685,-2.953 1.4508,-0.773 2.6553,-1.453 3.7126,-2.104 3.4313,-2.116 4.0796,-2.549 7.1613,-3.899 2.1218,-0.996 3.9175,-0.625 7.1951,-0.691 2.7766,0.663 5.1091,2.64 6.2242,3.234 1.3281,0.707 4.8599,4.684 6.9431,5.195 1.1778,0.578 2.0947,0.969 2.6545,0.718 0.785,-0.353 2.5936,0.223 4.6573,0.263 1.2987,0.276 2.7211,-0.145 3.896,-1.646 2.1161,-1.887 2.4833,-3.449 6.1672,-7.778 4.9029,-8.341 10.7645,-22.682 19.3157,-24.796 0.8971,-0.334 1.7743,-0.517 2.6352,-0.517 7.419,0.04 9.9381,5.998 13.6832,15.285 2.7912,7.42 6.8942,14.23 11.2662,17.254 3.209,2.835 5.88,4.561 8.339,5.524 1.75,0.725 3.805,0.907 6.318,0.817 5.52,-0.151 12.167,-3.372 13.689,-4.085 0.791,-0.371 1.755,-0.963 2.524,-1.478 2.656,-1.777 14.89,-9.596 21.573,-10.718 2.464,-0.244 4.759,-0.013 6.525,0.604 2.294,0.866 4.192,1.891 5.062,2.185 2.752,0.931 7.828,4.249 10.394,5.444 1.625,0.756 4.821,2.263 7.674,2.841 2.36,0.163 5.147,-0.258 7.647,-1.075 5.313,-1.147 10.1,-5.413 10.1,-5.413"
            style="fill:none;stroke:currentColor;stroke-width:0.267274;stroke-opacity:1"
            id="path36546" />
         <path
            d="m -0.048894,214.414 c 0,0 7.243144,0.923 14.763094,-3.009 1.4751,-0.795 2.685,-1.482 3.7374,-2.132 3.4227,-2.112 4.011,-2.505 7.2319,-3.904 2.1687,-1.007 4.0304,-0.588 7.2576,-0.544 2.8154,0.774 5.1538,2.858 6.2034,3.417 1.2499,0.665 4.8829,4.774 7.0141,5.202 1.1794,0.523 2.1129,0.868 2.7127,0.598 0.8411,-0.378 2.6503,0.099 4.7123,0.033 1.2772,0.212 2.675,-0.305 3.8441,-1.886 2.0603,-1.959 2.4796,-3.666 6.0257,-8 4.8522,-8.633 10.6539,-23.111 19.04,-25.363 0.8991,-0.358 1.7808,-0.554 2.6486,-0.554 7.3215,0.032 9.8606,6.265 13.5163,15.666 2.7427,7.571 6.6907,14.596 10.9567,17.672 3.2,2.945 5.834,4.737 8.29,5.745 1.757,0.762 3.815,0.974 6.356,0.912 5.601,-0.09 12.379,-3.393 13.811,-4.064 0.745,-0.349 1.714,-0.95 2.538,-1.502 2.846,-1.904 15.163,-9.773 21.75,-10.78 2.473,-0.205 4.783,0.073 6.571,0.716 2.345,0.911 4.262,1.977 5.08,2.253 2.591,0.876 7.708,4.248 10.458,5.528 1.74,0.811 4.958,2.29 7.762,2.77 2.358,0.081 5.153,-0.465 7.67,-1.396 5.292,-1.368 10.063,-5.711 10.063,-5.711"
            style="fill:none;stroke:currentColor;stroke-width:0.267274;stroke-opacity:1"
            id="path36548" />
         <path
            d="m -0.0508195,213.521 c 0,0 7.3125295,0.932 14.8718195,-3.065 1.4994,-0.816 2.7146,-1.511 3.7621,-2.158 3.4141,-2.109 3.9426,-2.463 7.3027,-3.911 2.2155,-1.017 4.1432,-0.55 7.3199,-0.397 2.8543,0.886 5.1987,3.076 6.1826,3.6 1.1719,0.625 4.906,4.864 7.0851,5.211 1.1811,0.466 2.1312,0.765 2.7709,0.477 0.8972,-0.403 2.707,-0.024 4.7674,-0.196 1.2557,0.148 2.6289,-0.466 3.7922,-2.127 2.0045,-2.03 2.4759,-3.883 5.8842,-8.222 4.8015,-8.925 10.5434,-23.54 18.7643,-25.931 0.901,-0.38 1.7873,-0.589 2.6621,-0.591 7.2239,0.025 9.783,6.532 13.3492,16.049 2.6953,7.721 6.4883,14.96 10.6463,18.089 3.192,3.055 5.788,4.912 8.241,5.967 1.765,0.798 3.826,1.04 6.396,1.006 5.681,-0.029 12.589,-3.414 13.933,-4.043 0.698,-0.328 1.672,-0.937 2.551,-1.526 3.035,-2.031 15.437,-9.949 21.928,-10.842 2.481,-0.166 4.806,0.159 6.615,0.829 2.398,0.954 4.333,2.061 5.1,2.32 2.429,0.821 7.587,4.248 10.52,5.613 1.857,0.865 5.096,2.316 7.852,2.699 2.355,-0.001 5.158,-0.673 7.692,-1.719 5.27,-1.589 10.026,-6.009 10.026,-6.009"
            style="fill:none;stroke:currentColor;stroke-width:0.267274;stroke-opacity:1"
            id="path36550" />
         <path
            d="m -0.052745,212.628 c 0,0 7.381905,0.941 14.980645,-3.121 1.5236,-0.837 2.7441,-1.54 3.7867,-2.184 3.4056,-2.106 3.8742,-2.42 7.3735,-3.918 2.2623,-1.027 4.256,-0.512 7.3822,-0.249 2.8933,0.997 5.2436,3.294 6.1619,3.783 1.0937,0.583 4.9291,4.954 7.1561,5.218 1.1827,0.411 2.1494,0.663 2.8291,0.357 0.9532,-0.428 2.7637,-0.147 4.8223,-0.426 1.2344,0.084 2.5829,-0.626 3.7404,-2.366 1.9487,-2.102 2.4722,-4.101 5.7427,-8.445 4.7508,-9.217 10.4329,-23.969 18.4886,-26.498 0.903,-0.403 1.7939,-0.625 2.6755,-0.628 7.1263,0.017 9.7055,6.798 13.1823,16.431 2.6468,7.87 6.2858,15.325 10.3368,18.506 3.184,3.165 5.741,5.088 8.192,6.188 1.772,0.835 3.836,1.107 6.435,1.101 5.761,0.032 12.8,-3.435 14.054,-4.022 0.651,-0.306 1.631,-0.924 2.565,-1.549 3.225,-2.159 15.71,-10.127 22.105,-10.905 2.49,-0.126 4.831,0.244 6.66,0.942 2.45,0.998 4.404,2.145 5.12,2.387 2.267,0.767 7.466,4.247 10.583,5.698 1.972,0.918 5.233,2.342 7.94,2.628 2.353,-0.084 5.164,-0.881 7.715,-2.041 5.248,-1.811 9.988,-6.307 9.988,-6.307"
            style="fill:none;stroke:currentColor;stroke-width:0.267274;stroke-opacity:1"
            id="path36552" />
         <path
            d="m -0.0546705,211.735 c 0,0 7.4512805,0.95 15.0893705,-3.177 1.5479,-0.858 2.7738,-1.569 3.8115,-2.21 3.397,-2.102 3.8056,-2.377 7.4441,-3.925 2.3092,-1.038 4.3689,-0.474 7.4447,-0.101 2.9321,1.108 5.2883,3.512 6.1411,3.966 1.0155,0.541 4.9521,5.043 7.227,5.225 1.1845,0.355 2.1676,0.561 2.8874,0.238 1.0093,-0.454 2.8203,-0.271 4.8773,-0.657 1.2129,0.02 2.5368,-0.786 3.6884,-2.606 1.893,-2.173 2.4686,-4.318 5.6013,-8.667 4.7001,-9.508 10.3223,-24.398 18.2129,-27.066 0.905,-0.426 1.8004,-0.66 2.689,-0.664 7.0287,0.009 9.6279,7.065 13.0152,16.812 2.5984,8.021 6.0824,15.69 10.0264,18.924 3.176,3.275 5.695,5.263 8.144,6.409 1.779,0.872 3.846,1.173 6.473,1.196 5.842,0.093 13.012,-3.456 14.176,-4.001 0.605,-0.284 1.59,-0.911 2.579,-1.573 3.414,-2.285 15.983,-10.304 22.283,-10.968 2.498,-0.086 4.854,0.331 6.704,1.056 2.502,1.041 4.475,2.23 5.139,2.455 2.105,0.711 7.347,4.245 10.646,5.782 2.089,0.972 5.37,2.368 8.029,2.557 2.352,-0.166 5.17,-1.089 7.738,-2.364 5.227,-2.032 9.951,-6.605 9.951,-6.605"
            style="fill:none;stroke:currentColor;stroke-width:0.267274;stroke-opacity:1"
            id="path36554" />
         <path
            d="m -0.056596,210.842 c 0,0 7.520656,0.959 15.198096,-3.232 1.5722,-0.88 2.8034,-1.598 3.8362,-2.238 3.3885,-2.098 3.7372,-2.334 7.5149,-3.93 2.3559,-1.049 4.4816,-0.437 7.507,0.046 2.9711,1.219 5.3332,3.729 6.1203,4.149 0.9375,0.499 4.9752,5.133 7.2981,5.232 1.1861,0.3 2.1858,0.459 2.9455,0.118 1.0654,-0.479 2.8771,-0.395 4.9324,-0.886 1.1914,-0.044 2.4907,-0.947 3.6365,-2.847 1.8372,-2.244 2.4649,-4.535 5.4598,-8.89 4.6494,-9.799 10.2118,-24.827 17.9372,-27.632 0.907,-0.449 1.8069,-0.697 2.7024,-0.701 6.9312,0 9.5504,7.331 12.8483,17.194 2.5509,8.171 5.8799,16.055 9.7169,19.341 3.167,3.384 5.648,5.439 8.095,6.631 1.786,0.907 3.856,1.239 6.512,1.289 5.921,0.155 13.223,-3.476 14.298,-3.979 0.558,-0.262 1.548,-0.898 2.592,-1.597 3.604,-2.412 16.256,-10.481 22.46,-11.03 2.507,-0.047 4.878,0.417 6.749,1.168 2.554,1.085 4.545,2.315 5.159,2.523 1.943,0.657 7.226,4.245 10.708,5.866 2.205,1.027 5.508,2.396 8.119,2.486 2.349,-0.248 5.175,-1.296 7.76,-2.685 5.205,-2.254 9.914,-6.903 9.914,-6.903"
            style="fill:none;stroke:currentColor;stroke-width:0.267274;stroke-opacity:1"
            id="path36556" />
         <path
            d="m -0.0585215,209.949 c 0,0 7.5900415,0.968 15.3068215,-3.288 1.5964,-0.901 2.833,-1.627 3.8609,-2.264 3.38,-2.095 3.6687,-2.291 7.5857,-3.937 2.4027,-1.059 4.5944,-0.399 7.5693,0.193 3.01,1.331 5.378,3.948 6.0996,4.332 0.8593,0.458 4.9983,5.223 7.369,5.241 1.1878,0.243 2.2041,0.356 3.0038,-0.003 1.1214,-0.504 2.9338,-0.518 4.9873,-1.116 1.17,-0.108 2.4447,-1.107 3.5847,-3.087 1.7814,-2.315 2.4612,-4.752 5.3183,-9.112 4.5987,-10.091 10.1012,-25.256 17.6615,-28.2 0.909,-0.472 1.8135,-0.732 2.7159,-0.738 6.8335,-0.007 9.4727,7.598 12.6812,17.577 2.5025,8.32 5.6765,16.419 9.4075,19.758 3.158,3.494 5.602,5.614 8.046,6.852 1.793,0.944 3.866,1.306 6.551,1.384 6.001,0.216 13.434,-3.497 14.419,-3.958 0.512,-0.24 1.506,-0.886 2.605,-1.621 3.794,-2.539 16.53,-10.657 22.639,-11.092 2.515,-0.008 4.901,0.503 6.793,1.281 2.606,1.129 4.616,2.4 5.179,2.59 1.781,0.602 7.105,4.244 10.771,5.951 2.32,1.081 5.645,2.422 8.207,2.415 2.347,-0.33 5.182,-1.504 7.782,-3.008 5.185,-2.475 9.878,-7.201 9.878,-7.201"
            style="fill:none;stroke:currentColor;stroke-width:0.267274;stroke-opacity:1"
            id="path36558" />
         <path
            d="m -0.060447,209.057 c 0,0 7.659417,0.976 15.415547,-3.345 1.6207,-0.922 2.8626,-1.656 3.8857,-2.29 3.3714,-2.092 3.6002,-2.248 7.6563,-3.944 2.4496,-1.069 4.7073,-0.361 7.6317,0.341 3.049,1.443 5.4229,4.166 6.0789,4.515 0.7812,0.416 5.0213,5.312 7.44,5.248 1.1894,0.188 2.2223,0.254 3.062,-0.123 1.1775,-0.529 2.9904,-0.641 5.0423,-1.346 1.1486,-0.172 2.3986,-1.267 3.5327,-3.326 1.7257,-2.387 2.4576,-4.97 5.1769,-9.335 4.548,-10.383 9.9907,-25.685 17.3858,-28.767 0.911,-0.495 1.82,-0.768 2.7293,-0.775 6.736,-0.015 9.3952,7.865 12.5143,17.958 2.4541,8.471 5.474,16.784 9.097,20.176 3.15,3.604 5.556,5.789 7.998,7.073 1.8,0.981 3.876,1.373 6.59,1.479 6.081,0.277 13.645,-3.518 14.54,-3.937 0.466,-0.219 1.465,-0.873 2.619,-1.645 3.984,-2.666 16.804,-10.834 22.816,-11.154 2.524,0.032 4.925,0.589 6.838,1.394 2.658,1.172 4.687,2.484 5.198,2.657 1.62,0.547 6.985,4.244 10.834,6.036 2.437,1.135 5.782,2.448 8.296,2.344 2.345,-0.413 5.188,-1.712 7.805,-3.331 5.163,-2.696 9.841,-7.498 9.841,-7.498"
            style="fill:none;stroke:currentColor;stroke-width:0.267274;stroke-opacity:1"
            id="path36560" />
         <path
            d="m -0.0623725,208.164 c 0,0 7.7287925,0.985 15.5243725,-3.4 1.6449,-0.944 2.8922,-1.686 3.9103,-2.318 3.3629,-2.088 3.5317,-2.205 7.7271,-3.95 2.4964,-1.079 4.8201,-0.323 7.6941,0.489 3.0878,1.554 5.4676,4.383 6.058,4.698 0.7031,0.374 5.0445,5.402 7.511,5.255 1.1912,0.132 2.2405,0.152 3.1202,-0.243 1.2336,-0.554 3.0472,-0.764 5.0974,-1.575 1.1271,-0.236 2.3525,-1.428 3.4808,-3.567 1.6698,-2.458 2.4539,-5.188 5.0354,-9.557 4.4973,-10.675 9.8802,-26.114 17.1101,-29.335 0.913,-0.517 1.8265,-0.804 2.7427,-0.811 6.6385,-0.023 9.3177,8.131 12.3473,18.34 2.4059,8.621 5.2716,17.149 8.7876,20.593 3.141,3.714 5.509,5.965 7.949,7.294 1.807,1.018 3.886,1.439 6.628,1.574 6.162,0.337 13.857,-3.539 14.663,-3.916 0.418,-0.197 1.423,-0.86 2.632,-1.669 4.173,-2.793 17.077,-11.011 22.994,-11.216 2.532,0.071 4.948,0.674 6.882,1.506 2.711,1.216 4.758,2.57 5.218,2.725 1.457,0.493 6.864,4.243 10.897,6.121 2.552,1.188 5.919,2.474 8.385,2.273 2.343,-0.495 5.193,-1.92 7.827,-3.653 5.141,-2.918 9.804,-7.797 9.804,-7.797"
            style="fill:none;stroke:currentColor;stroke-width:0.267274;stroke-opacity:1"
            id="path36562" />
         <path
            d="m -0.064298,207.271 c 0,0 7.798178,0.994 15.633098,-3.456 1.6692,-0.965 2.9218,-1.715 3.935,-2.344 3.3544,-2.084 3.4633,-2.162 7.7979,-3.956 2.5432,-1.09 4.9329,-0.286 7.7564,0.636 3.1268,1.665 5.5125,4.601 6.0373,4.881 0.6249,0.333 5.0675,5.491 7.582,5.262 1.1928,0.077 2.2587,0.05 3.1784,-0.363 1.2896,-0.579 3.1038,-0.888 5.1523,-1.805 1.1057,-0.3 2.3065,-1.587 3.429,-3.807 1.614,-2.529 2.4502,-5.405 4.8939,-9.779 4.4466,-10.967 9.7696,-26.543 16.8344,-29.902 0.9149,-0.541 1.8331,-0.84 2.7562,-0.849 6.5408,-0.03 9.2401,8.398 12.1803,18.723 2.3577,8.771 5.0681,17.513 8.4771,21.01 3.133,3.824 5.463,6.14 7.901,7.516 1.814,1.054 3.896,1.505 6.667,1.668 6.242,0.398 14.067,-3.56 14.784,-3.895 0.372,-0.175 1.382,-0.847 2.646,-1.693 4.363,-2.919 17.35,-11.188 23.171,-11.279 2.542,0.111 4.973,0.761 6.927,1.62 2.763,1.26 4.829,2.654 5.238,2.792 1.295,0.438 6.743,4.243 10.959,6.206 2.669,1.242 6.057,2.5 8.474,2.201 2.341,-0.577 5.199,-2.127 7.85,-3.975 5.12,-3.139 9.767,-8.094 9.767,-8.094"
            style="fill:none;stroke:currentColor;stroke-width:0.267274;stroke-opacity:1"
            id="path36564" />
         <path
            d="m -0.0662235,206.378 c 0,0 7.8675535,1.003 15.7418235,-3.512 1.6935,-0.986 2.9514,-1.743 3.9598,-2.37 3.3458,-2.081 3.3947,-2.119 7.8685,-3.963 2.5901,-1.1 5.0458,-0.248 7.8188,0.783 3.1657,1.777 5.5574,4.82 6.0165,5.064 0.5469,0.292 5.0906,5.582 7.653,5.271 1.1945,0.02 2.277,-0.052 3.2366,-0.483 1.3458,-0.605 3.1606,-1.012 5.2074,-2.036 1.0843,-0.364 2.2604,-1.747 3.3771,-4.046 1.5582,-2.601 2.4465,-5.623 4.7524,-10.002 4.3959,-11.259 9.6591,-26.972 16.5587,-30.47 0.9169,-0.563 1.8396,-0.875 2.7696,-0.885 6.4433,-0.038 9.1626,8.664 12.0134,19.104 2.3095,8.921 4.8656,17.879 8.1676,21.429 3.124,3.933 5.416,6.315 7.852,7.736 1.821,1.091 3.906,1.572 6.706,1.763 6.321,0.459 14.278,-3.581 14.905,-3.874 0.326,-0.153 1.341,-0.834 2.66,-1.716 4.552,-3.047 17.623,-11.365 23.349,-11.342 2.55,0.15 4.996,0.847 6.971,1.733 2.815,1.303 4.899,2.738 5.257,2.859 1.134,0.384 6.623,4.242 11.022,6.29 2.785,1.297 6.195,2.527 8.563,2.131 2.339,-0.659 5.205,-2.335 7.873,-4.297 5.098,-3.361 9.73,-8.393 9.73,-8.393"
            style="fill:none;stroke:currentColor;stroke-width:0.267274;stroke-opacity:1"
            id="path36566" />
         <path
            d="m -0.0681489,205.485 c 0,0 7.9369289,1.012 15.8505489,-3.568 1.7178,-1.007 2.9811,-1.772 3.9845,-2.397 3.3373,-2.077 3.3263,-2.076 7.9393,-3.969 2.6368,-1.11 5.1586,-0.21 7.8811,0.931 3.2046,1.888 5.6022,5.038 5.9958,5.247 0.4687,0.25 5.1137,5.671 7.7239,5.278 1.1962,-0.035 2.2953,-0.154 3.2949,-0.603 1.4018,-0.63 3.2172,-1.135 5.2624,-2.265 1.0628,-0.428 2.2143,-1.908 3.3251,-4.287 1.5025,-2.673 2.4428,-5.84 4.611,-10.225 4.3452,-11.55 9.5486,-27.401 16.283,-31.036 0.9189,-0.586 1.8461,-0.912 2.7831,-0.922 6.3457,-0.047 9.085,8.931 11.8463,19.486 2.2613,9.071 4.6622,18.243 7.8582,21.846 3.115,4.043 5.37,6.49 7.803,7.957 1.828,1.128 3.916,1.639 6.745,1.857 6.401,0.521 14.489,-3.601 15.026,-3.852 0.28,-0.131 1.3,-0.821 2.673,-1.74 4.743,-3.174 17.898,-11.542 23.528,-11.404 2.558,0.189 5.019,0.933 7.015,1.845 2.867,1.347 4.97,2.824 5.277,2.928 0.972,0.328 6.502,4.241 11.085,6.374 2.901,1.351 6.331,2.554 8.652,2.06 2.336,-0.742 5.21,-2.543 7.895,-4.62 5.077,-3.581 9.693,-8.69 9.693,-8.69"
            style="fill:none;stroke:currentColor;stroke-width:0.267274;stroke-opacity:1"
            id="path36568" />
         <path
            d="m -0.0700744,204.592 c 0,0 8.0063044,1.021 15.9593744,-3.623 1.742,-1.029 3.0106,-1.802 4.0091,-2.424 3.3288,-2.074 3.2579,-2.033 8.0101,-3.975 2.6836,-1.121 5.2713,-0.173 7.9435,1.078 3.2435,1.999 5.647,5.255 5.975,5.43 0.3906,0.208 5.1367,5.761 7.7949,5.285 1.1978,-0.091 2.3135,-0.256 3.3531,-0.723 1.4578,-0.655 3.2739,-1.258 5.3173,-2.495 1.0414,-0.492 2.1683,-2.068 3.2733,-4.527 1.4467,-2.744 2.4391,-6.057 4.4695,-10.447 4.2944,-11.841 9.438,-27.83 16.0073,-31.604 0.9209,-0.609 1.8526,-0.947 2.7965,-0.958 6.2481,-0.055 9.0075,9.197 11.6794,19.868 2.2131,9.221 4.4597,18.608 7.5477,22.263 3.107,4.153 5.324,6.666 7.755,8.179 1.835,1.164 3.926,1.705 6.783,1.951 6.482,0.582 14.701,-3.622 15.149,-3.831 0.232,-0.11 1.258,-0.808 2.686,-1.764 4.932,-3.301 18.171,-11.719 23.705,-11.466 2.567,0.229 5.043,1.019 7.061,1.958 2.918,1.391 5.04,2.908 5.296,2.995 0.809,0.273 6.381,4.24 11.147,6.459 3.017,1.405 6.469,2.58 8.741,1.989 2.335,-0.824 5.216,-2.751 7.918,-4.942 5.055,-3.803 9.656,-8.989 9.656,-8.989"
            style="fill:none;stroke:currentColor;stroke-width:0.267274;stroke-opacity:1"
            id="path36570" />
         <path
            d="m -0.0719999,203.7 c 0,0 8.0756899,1.029 16.0680999,-3.68 1.7663,-1.05 3.0402,-1.831 4.0339,-2.45 3.3202,-2.071 3.1893,-1.99 8.0808,-3.982 2.7304,-1.131 5.3841,-0.135 8.0058,1.225 3.2824,2.111 5.6918,5.474 5.9542,5.614 0.3125,0.166 5.1599,5.85 7.8659,5.292 1.1996,-0.146 2.3317,-0.358 3.4113,-0.843 1.514,-0.68 3.3306,-1.382 5.3724,-2.725 1.02,-0.556 2.1222,-2.228 3.2214,-4.766 1.3909,-2.816 2.4354,-6.275 4.328,-10.67 4.2437,-12.133 9.3275,-28.259 15.7316,-32.171 0.9229,-0.632 1.8592,-0.983 2.81,-0.996 6.1505,-0.062 8.9299,9.464 11.5123,20.251 2.165,9.37 4.2573,18.972 7.2383,22.68 3.098,4.263 5.277,6.841 7.706,8.4 1.842,1.201 3.936,1.771 6.822,2.046 6.562,0.643 14.912,-3.643 15.27,-3.81 0.186,-0.088 1.217,-0.795 2.7,-1.788 5.122,-3.428 18.444,-11.896 23.883,-11.528 2.575,0.268 5.066,1.105 7.105,2.071 2.971,1.434 5.111,2.993 5.315,3.062 0.648,0.219 6.261,4.239 11.211,6.544 3.132,1.458 6.606,2.606 8.829,1.917 2.333,-0.906 5.222,-2.959 7.94,-5.264 5.035,-4.024 9.62,-9.286 9.62,-9.286"
            style="fill:none;stroke:currentColor;stroke-width:0.267274;stroke-opacity:1"
            id="path36572" />
         <path
            d="m -0.0739254,202.807 c 0,0 8.1450654,1.038 16.1768254,-3.736 1.7906,-1.072 3.0699,-1.859 4.0586,-2.476 3.3117,-2.067 3.1209,-1.948 8.1515,-3.989 2.7773,-1.142 5.497,-0.097 8.0682,1.373 3.3214,2.222 5.7367,5.692 5.9335,5.797 0.2343,0.124 5.1829,5.94 7.9369,5.3 1.2012,-0.203 2.3499,-0.461 3.4695,-0.964 1.57,-0.705 3.3873,-1.505 5.4274,-2.954 0.9985,-0.62 2.0761,-2.389 3.1694,-5.007 1.3352,-2.887 2.4318,-6.492 4.1866,-10.892 4.193,-12.425 9.217,-28.688 15.4559,-32.738 0.9249,-0.656 1.8657,-1.02 2.8234,-1.033 6.053,-0.07 8.8524,9.731 11.3454,20.632 2.1167,9.521 4.0538,19.337 6.9278,23.098 3.09,4.373 5.231,7.017 7.658,8.621 1.849,1.237 3.946,1.838 6.861,2.141 6.642,0.704 15.123,-3.663 15.391,-3.789 0.14,-0.066 1.175,-0.782 2.714,-1.812 5.311,-3.554 18.717,-12.072 24.06,-11.591 2.584,0.308 5.09,1.191 7.15,2.184 3.023,1.478 5.182,3.078 5.335,3.13 0.486,0.164 6.14,4.239 11.273,6.628 3.249,1.513 6.743,2.633 8.919,1.847 2.33,-0.988 5.227,-3.167 7.962,-5.586 5.013,-4.246 9.582,-9.585 9.582,-9.585"
            style="fill:none;stroke:currentColor;stroke-width:0.267274;stroke-opacity:1"
            id="path36574" />
         <path
            d="m -0.0758509,201.914 c 0,0 8.2144409,1.047 16.2855509,-3.791 1.8149,-1.094 3.0995,-1.889 4.0833,-2.504 3.3032,-2.063 3.0524,-1.904 8.2223,-3.995 2.8241,-1.152 5.6098,-0.059 8.1305,1.521 3.3603,2.334 5.7816,5.909 5.9127,5.979 0.1563,0.084 5.206,6.03 8.0079,5.308 1.2029,-0.258 2.3682,-0.563 3.5277,-1.084 1.6262,-0.73 3.444,-1.628 5.4824,-3.184 0.9771,-0.684 2.0301,-2.549 3.1176,-5.247 1.2794,-2.958 2.4281,-6.709 4.0452,-11.114 4.1422,-12.717 9.1063,-29.117 15.1801,-33.306 0.9269,-0.678 1.8722,-1.055 2.8369,-1.069 5.9553,-0.078 8.7747,9.997 11.1783,21.014 2.0686,9.671 3.8513,19.702 6.6184,23.515 3.081,4.483 5.184,7.192 7.609,8.843 1.856,1.273 3.956,1.904 6.899,2.235 6.722,0.765 15.335,-3.684 15.514,-3.768 0.093,-0.044 1.133,-0.769 2.727,-1.836 5.501,-3.681 18.991,-12.249 24.238,-11.653 2.592,0.347 5.114,1.277 7.194,2.297 3.075,1.522 5.253,3.162 5.355,3.197 0.324,0.11 6.02,4.238 11.335,6.713 3.365,1.567 6.881,2.659 9.008,1.776 2.328,-1.071 5.233,-3.375 7.985,-5.909 4.991,-4.467 9.545,-9.882 9.545,-9.882"
            style="fill:none;stroke:currentColor;stroke-width:0.267274;stroke-opacity:1"
            id="path36576" />
         <path
            d="m -0.0777764,201.021 c 0,0 8.2838264,1.056 16.3942764,-3.847 1.8391,-1.115 3.1291,-1.918 4.1081,-2.53 3.2946,-2.06 2.9839,-1.861 8.293,-4.001 2.8709,-1.163 5.7226,-0.022 8.1929,1.668 3.3992,2.445 5.8263,6.127 5.8919,6.162 0.0781,0.042 5.2291,6.12 8.0789,5.315 1.2045,-0.314 2.3864,-0.665 3.5859,-1.204 1.6822,-0.755 3.5007,-1.751 5.5374,-3.414 0.9556,-0.748 1.984,-2.709 3.0657,-5.486 1.2236,-3.03 2.4244,-6.927 3.9037,-11.338 4.0915,-13.008 8.9958,-29.545 14.9044,-33.872 0.9289,-0.701 1.8788,-1.091 2.8503,-1.106 5.8578,-0.086 8.6972,10.263 11.0114,21.396 2.0203,9.82 3.6484,20.066 6.3089,23.932 3.072,4.593 5.137,7.368 7.56,9.064 1.863,1.31 3.966,1.971 6.938,2.329 6.802,0.826 15.545,-3.704 15.635,-3.746 0.046,-0.022 1.092,-0.756 2.741,-1.859 5.69,-3.809 19.264,-12.427 24.415,-11.716 2.601,0.387 5.138,1.363 7.239,2.41 3.127,1.565 5.323,3.247 5.374,3.264 0.162,0.055 5.9,4.238 11.399,6.798 3.481,1.621 7.018,2.686 9.096,1.704 2.327,-1.152 5.239,-3.582 8.008,-6.231 4.97,-4.688 9.508,-10.18 9.508,-10.18"
            style="fill:none;stroke:currentColor;stroke-width:0.267274;stroke-opacity:1"
            id="path36578" />
      </g>
      <g
         id="g36642"
         transform="translate(0.01534854,-142.86665)">
         <path
            d="m -0.0783126,199.831 c 0,0 8.2812526,1.055 16.3900126,-3.846 1.9705,-1.194 3.3098,-2.03 4.3115,-2.656 3.0437,-1.903 2.8588,-1.781 8.0549,-3.91 5.4801,-2.302 10.8843,3.726 13.0863,6.443 0.5569,0.732 0.8727,1.216 0.8828,1.223 0.08,0.056 5.2357,6.104 8.1069,5.271 2.9025,-0.822 5.7483,-1.832 9.1969,-4.777 5.3213,-4.284 12.1204,-43.821 21.5873,-49.987 0.9338,-0.708 1.8951,-1.095 2.8843,-1.093 10.7131,0.011 11.784,36.577 17.5244,44.512 5.429,8.021 7.696,10.382 14.493,11.221 3.936,0.473 8.482,-0.779 11.653,-1.908 2.348,-0.846 3.95,-1.644 3.983,-1.627 0.194,0.1 20.618,-14.116 27.216,-13.093 6.424,1.027 12.501,5.654 12.618,5.639 0.193,-0.024 15.298,10.871 20.542,8.132 6.473,-3.378 17.367,-16.615 17.51,-16.689"
            style="fill:none;stroke:currentColor;stroke-width:0.267315;stroke-opacity:1"
            id="path36582" />
         <path
            d="m -0.0769232,199.533 c 0,0 8.2093032,1.046 16.2769232,-3.788 1.9433,-1.17 3.2772,-1.998 4.2845,-2.627 3.0203,-1.887 2.8916,-1.827 7.9519,-3.941 5.3903,-2.366 10.6289,3.323 12.9266,5.966 0.549,0.716 0.8648,1.19 0.8851,1.204 0.1599,0.113 5.2193,5.999 8.064,5.22 2.9072,-0.756 5.7462,-1.725 9.1573,-4.586 5.6516,-4.23 12.2762,-43.42 21.8374,-48.3 0.9153,-0.658 1.8611,-1.011 2.8372,-0.991 10.5597,0.199 12.1582,35.366 18.206,42.897 5.425,7.705 7.785,9.942 14.497,10.732 3.933,0.438 8.434,-0.771 11.569,-1.829 2.299,-0.797 3.88,-1.548 3.946,-1.514 0.389,0.199 20.41,-13.507 27.086,-12.525 6.328,0.99 12.324,5.452 12.559,5.422 0.385,-0.048 15.185,10.445 20.436,7.749 6.494,-3.328 17.233,-16.199 17.519,-16.346"
            style="fill:none;stroke:currentColor;stroke-width:0.267315;stroke-opacity:1"
            id="path36584" />
         <path
            d="m -0.0755338,199.235 c 0,0 8.1373538,1.037 16.1639338,-3.729 1.9161,-1.147 3.2445,-1.967 4.2575,-2.599 2.9968,-1.871 2.9243,-1.872 7.8488,-3.971 5.3005,-2.43 10.3735,2.919 12.7669,5.488 0.5411,0.699 0.857,1.165 0.8874,1.186 0.2399,0.169 5.2029,5.894 8.0211,5.168 2.912,-0.691 5.7441,-1.619 9.1177,-4.395 5.982,-4.175 12.432,-43.019 22.0875,-46.613 0.8968,-0.609 1.8271,-0.927 2.7901,-0.888 10.4063,0.387 12.5325,34.154 18.8876,41.281 5.421,7.388 7.874,9.502 14.501,10.243 3.931,0.404 8.386,-0.764 11.486,-1.751 2.25,-0.747 3.809,-1.452 3.909,-1.401 0.583,0.299 20.201,-12.897 26.955,-11.957 6.232,0.953 12.147,5.251 12.499,5.207 0.578,-0.073 15.073,10.017 20.332,7.365 6.513,-3.277 17.097,-15.783 17.527,-16.003"
            style="fill:none;stroke:currentColor;stroke-width:0.267315;stroke-opacity:1"
            id="path36586" />
         <path
            d="m -0.0741445,198.938 c 0,0 8.0654045,1.028 16.0508445,-3.672 1.8889,-1.123 3.2119,-1.935 4.2306,-2.57 2.9732,-1.855 2.957,-1.917 7.7457,-4.002 5.2106,-2.494 10.118,2.517 12.6072,5.01 0.5332,0.683 0.8492,1.141 0.8898,1.169 0.3198,0.224 5.1864,5.789 7.978,5.116 2.9168,-0.625 5.7421,-1.513 9.0782,-4.204 6.3123,-4.121 12.5877,-42.618 22.3376,-44.926 0.8783,-0.56 1.793,-0.842 2.743,-0.785 10.2529,0.574 12.9067,32.942 19.5692,39.665 5.417,7.071 7.963,9.063 14.505,9.754 3.928,0.369 8.338,-0.756 11.402,-1.672 2.202,-0.697 3.74,-1.356 3.873,-1.288 0.777,0.398 19.991,-12.288 26.824,-11.389 6.136,0.915 11.97,5.049 12.439,4.99 0.771,-0.096 14.961,9.59 20.227,6.982 6.533,-3.227 16.963,-15.367 17.536,-15.66"
            style="fill:none;stroke:currentColor;stroke-width:0.267315;stroke-opacity:1"
            id="path36588" />
         <path
            d="m -0.0727551,198.64 c 0,0 7.9934651,1.019 15.9378551,-3.614 1.8617,-1.1 3.1792,-1.903 4.2036,-2.541 2.9497,-1.839 2.9898,-1.962 7.6425,-4.033 5.1209,-2.558 9.8627,2.114 12.4475,4.533 0.5255,0.666 0.8415,1.115 0.8922,1.151 0.3998,0.28 5.17,5.683 7.9351,5.065 2.9216,-0.56 5.74,-1.407 9.0386,-4.014 6.6426,-4.066 12.7435,-42.217 22.5877,-43.239 0.8598,-0.51 1.759,-0.758 2.6959,-0.683 10.0996,0.763 13.2809,31.731 20.2508,38.05 5.413,6.754 8.052,8.623 14.509,9.266 3.925,0.334 8.29,-0.749 11.318,-1.595 2.153,-0.647 3.67,-1.26 3.836,-1.175 0.972,0.498 19.783,-11.678 26.694,-10.821 6.04,0.879 11.793,4.849 12.379,4.775 0.964,-0.121 14.849,9.163 20.123,6.597 6.552,-3.175 16.828,-14.95 17.544,-15.317"
            style="fill:none;stroke:currentColor;stroke-width:0.267315;stroke-opacity:1"
            id="path36590" />
         <path
            d="m -0.0713657,198.343 c 0,0 7.9215157,1.009 15.8247657,-3.557 1.8345,-1.076 3.1466,-1.871 4.1766,-2.512 2.9263,-1.823 3.0226,-2.007 7.5395,-4.064 5.0311,-2.621 9.6073,1.711 12.2878,4.056 0.5176,0.649 0.8337,1.09 0.8945,1.133 0.4798,0.336 5.1535,5.578 7.8922,5.013 2.9263,-0.495 5.7379,-1.301 8.9989,-3.823 6.9731,-4.012 12.8994,-41.817 22.8379,-41.553 0.8413,-0.46 1.7249,-0.673 2.6488,-0.579 9.9462,0.95 13.6552,30.519 20.9324,36.434 5.409,6.437 8.141,8.183 14.513,8.777 3.923,0.3 8.242,-0.742 11.235,-1.516 2.104,-0.598 3.599,-1.164 3.799,-1.062 1.166,0.597 19.574,-11.069 26.563,-10.253 5.944,0.841 11.616,4.647 12.32,4.558 1.156,-0.145 14.735,8.736 20.017,6.214 6.573,-3.125 16.694,-14.534 17.553,-14.974"
            style="fill:none;stroke:currentColor;stroke-width:0.267315;stroke-opacity:1"
            id="path36592" />
         <path
            d="m -0.0699764,198.045 c 0,0 7.8495664,1 15.7116764,-3.499 1.8074,-1.052 3.114,-1.839 4.1497,-2.483 2.9027,-1.807 3.0553,-2.052 7.4364,-4.094 4.9413,-2.686 9.3518,1.308 12.1281,3.577 0.5097,0.633 0.8259,1.066 0.8968,1.116 0.5598,0.392 5.1371,5.472 7.8493,4.961 2.931,-0.429 5.7359,-1.194 8.9593,-3.632 7.3034,-3.957 13.0552,-41.416 23.088,-39.866 0.8228,-0.411 1.6909,-0.589 2.6017,-0.477 9.7928,1.139 14.0294,29.308 21.614,34.819 5.404,6.12 8.23,7.743 14.517,8.288 3.92,0.265 8.194,-0.734 11.151,-1.438 2.055,-0.547 3.53,-1.068 3.762,-0.949 1.361,0.697 19.365,-10.459 26.433,-9.685 5.848,0.804 11.439,4.446 12.26,4.343 1.349,-0.17 14.623,8.309 19.912,5.83 6.593,-3.074 16.56,-14.118 17.562,-14.631"
            style="fill:none;stroke:currentColor;stroke-width:0.267315;stroke-opacity:1"
            id="path36594" />
         <path
            d="m -0.068587,197.748 c 0,0 7.777617,0.991 15.598687,-3.442 1.7801,-1.028 3.0813,-1.807 4.1227,-2.454 2.8792,-1.791 3.088,-2.097 7.3333,-4.125 4.8515,-2.75 9.0964,0.905 11.9684,3.1 0.5018,0.617 0.8181,1.041 0.8991,1.097 0.6398,0.449 5.1207,5.368 7.8063,4.91 2.9359,-0.363 5.7339,-1.088 8.9198,-3.441 7.6338,-3.903 13.2109,-41.015 23.338,-38.179 0.8044,-0.361 1.6569,-0.505 2.5547,-0.374 9.6394,1.327 14.4036,28.096 22.2956,33.203 5.4,5.803 8.319,7.303 14.522,7.8 3.916,0.23 8.145,-0.727 11.066,-1.36 2.007,-0.498 3.46,-0.973 3.726,-0.836 1.555,0.796 19.156,-9.85 26.301,-9.118 5.753,0.767 11.262,4.245 12.201,4.127 1.542,-0.193 14.511,7.882 19.808,5.447 6.612,-3.024 16.424,-13.702 17.57,-14.288"
            style="fill:none;stroke:currentColor;stroke-width:0.267315;stroke-opacity:1"
            id="path36596" />
         <path
            d="m -0.0671976,197.45 c 0,0 7.7056676,0.982 15.4855976,-3.383 1.753,-1.006 3.0487,-1.776 4.0958,-2.426 2.8557,-1.775 3.1207,-2.142 7.2302,-4.156 4.7617,-2.813 8.841,0.502 11.8087,2.623 0.494,0.6 0.8103,1.015 0.9015,1.079 0.7197,0.505 5.1042,5.263 7.7633,4.859 2.9406,-0.299 5.7318,-0.983 8.8802,-3.251 7.9641,-3.848 13.3667,-40.614 23.5881,-36.492 0.786,-0.312 1.6229,-0.421 2.5076,-0.272 9.4861,1.515 14.7778,26.885 22.9772,31.587 5.396,5.487 8.408,6.864 14.526,7.312 3.913,0.196 8.097,-0.72 10.982,-1.282 1.959,-0.447 3.39,-0.876 3.69,-0.723 1.749,0.896 18.947,-9.24 26.17,-8.549 5.657,0.73 11.085,4.044 12.141,3.911 1.735,-0.218 14.399,7.455 19.703,5.063 6.633,-2.973 16.29,-13.286 17.58,-13.946"
            style="fill:none;stroke:currentColor;stroke-width:0.267315;stroke-opacity:1"
            id="path36598" />
         <path
            d="m -0.0658083,197.152 c 0,0 7.6337183,0.973 15.3725083,-3.325 1.7258,-0.982 3.0162,-1.744 4.0688,-2.397 2.8322,-1.759 3.1535,-2.187 7.1272,-4.187 4.6718,-2.877 8.5855,0.1 11.649,2.145 0.4861,0.584 0.8024,0.991 0.9038,1.062 0.7997,0.561 5.0878,5.157 7.7204,4.807 2.9453,-0.233 5.7297,-0.876 8.8406,-3.06 8.2944,-3.794 13.5225,-40.213 23.8382,-34.805 0.7675,-0.263 1.5888,-0.336 2.4605,-0.169 9.3327,1.703 15.1521,25.673 23.6588,29.971 5.392,5.17 8.497,6.424 14.53,6.823 3.911,0.161 8.049,-0.712 10.899,-1.203 1.909,-0.398 3.32,-0.781 3.652,-0.61 1.944,0.995 18.738,-8.631 26.04,-7.982 5.561,0.693 10.908,3.843 12.082,3.695 1.927,-0.242 14.286,7.028 19.597,4.68 6.653,-2.922 16.156,-12.87 17.589,-13.603"
            style="fill:none;stroke:currentColor;stroke-width:0.267315;stroke-opacity:1"
            id="path36600" />
         <path
            d="m -0.0644189,196.855 c 0,0 7.5617689,0.963 15.2595189,-3.268 1.6986,-0.958 2.9835,-1.712 4.0418,-2.368 2.8087,-1.743 3.1862,-2.233 7.024,-4.217 4.5821,-2.941 8.3302,-0.304 11.4893,1.667 0.4783,0.567 0.7947,0.966 0.9062,1.044 0.8797,0.617 5.0714,5.052 7.6775,4.755 2.9501,-0.167 5.7276,-0.77 8.801,-2.868 8.6248,-3.74 13.6783,-39.813 24.0883,-33.119 0.749,-0.213 1.5548,-0.252 2.4134,-0.067 9.1793,1.891 15.5263,24.462 24.3414,28.356 5.387,4.853 8.585,5.984 14.533,6.335 3.908,0.126 8.001,-0.705 10.815,-1.125 1.861,-0.349 3.25,-0.685 3.616,-0.498 2.138,1.095 18.529,-8.021 25.909,-7.413 5.465,0.655 10.731,3.641 12.022,3.479 2.12,-0.266 14.174,6.601 19.493,4.296 6.672,-2.872 16.021,-12.454 17.597,-13.26"
            style="fill:none;stroke:currentColor;stroke-width:0.267315;stroke-opacity:1"
            id="path36602" />
         <path
            d="m -0.0630296,196.557 c 0,0 7.4898196,0.955 15.1464296,-3.21 1.6714,-0.934 2.9509,-1.68 4.0149,-2.339 2.7852,-1.728 3.2189,-2.278 6.9209,-4.248 4.4923,-3.005 8.0748,-0.707 11.3296,1.19 0.4705,0.55 0.7869,0.94 0.9085,1.026 0.9597,0.673 5.055,4.946 7.6345,4.704 2.9549,-0.103 5.7256,-0.665 8.7614,-2.678 8.9552,-3.686 13.8341,-39.412 24.3385,-31.432 0.7305,-0.164 1.5207,-0.168 2.3663,0.036 9.026,2.079 15.9005,23.25 25.023,26.74 5.383,4.537 8.674,5.544 14.537,5.846 3.905,0.091 7.953,-0.697 10.731,-1.047 1.813,-0.298 3.18,-0.589 3.579,-0.384 2.332,1.194 18.32,-7.411 25.779,-6.846 5.369,0.618 10.554,3.44 11.962,3.263 2.313,-0.29 14.062,6.174 19.388,3.912 6.692,-2.82 15.886,-12.037 17.606,-12.916"
            style="fill:none;stroke:currentColor;stroke-width:0.267315;stroke-opacity:1"
            id="path36604" />
         <path
            d="m -0.0616402,196.26 c 0,0 7.4178802,0.945 15.0334402,-3.153 1.6442,-0.911 2.9182,-1.648 3.9879,-2.31 2.7617,-1.712 3.2516,-2.323 6.8178,-4.279 4.4025,-3.069 7.8193,-1.109 11.1699,0.712 0.4626,0.535 0.7791,0.916 0.9109,1.008 1.0396,0.73 5.0385,4.842 7.5915,4.653 2.9596,-0.037 5.7235,-0.558 8.7218,-2.487 9.2856,-3.632 13.9899,-39.012 24.5886,-29.746 0.712,-0.114 1.4867,-0.083 2.3192,0.14 8.8726,2.266 16.2748,22.038 25.7046,25.124 5.378,4.22 8.762,5.105 14.541,5.357 3.903,0.057 7.905,-0.69 10.648,-0.968 1.763,-0.249 3.11,-0.493 3.542,-0.272 2.526,1.294 18.111,-6.801 25.648,-6.277 5.273,0.581 10.377,3.239 11.902,3.047 2.506,-0.315 13.95,5.747 19.284,3.528 6.712,-2.77 15.751,-11.621 17.614,-12.574"
            style="fill:none;stroke:currentColor;stroke-width:0.267315;stroke-opacity:1"
            id="path36606" />
         <path
            d="m -0.0602508,195.962 c 0,0 7.3459308,0.936 14.9203508,-3.095 1.617,-0.887 2.8856,-1.616 3.9609,-2.281 2.7382,-1.696 3.2844,-2.368 6.7148,-4.31 4.3127,-3.132 7.5639,-1.512 11.0102,0.235 0.4547,0.518 0.7713,0.891 0.9132,0.99 1.1195,0.786 5.0221,4.737 7.5486,4.601 2.9644,0.029 5.7214,-0.452 8.6822,-2.296 9.6159,-3.577 14.1457,-38.611 24.8387,-28.059 0.6935,-0.064 1.4526,10e-4 2.2721,0.242 8.7192,2.455 16.649,20.827 26.3862,23.509 5.374,3.903 8.851,4.665 14.545,4.869 3.9,0.022 7.857,-0.683 10.564,-0.891 1.715,-0.199 3.04,-0.397 3.505,-0.158 2.721,1.393 17.903,-6.192 25.518,-5.71 5.177,0.544 10.2,3.038 11.843,2.831 2.698,-0.339 13.837,5.32 19.178,3.145 6.732,-2.719 15.617,-11.205 17.623,-12.231"
            style="fill:none;stroke:currentColor;stroke-width:0.267315;stroke-opacity:1"
            id="path36608" />
         <path
            d="m -0.0588615,195.665 c 0,0 7.2739815,0.927 14.8072615,-3.038 1.5898,-0.863 2.853,-1.584 3.934,-2.252 2.7147,-1.68 3.3171,-2.413 6.6117,-4.34 4.2229,-3.197 7.3085,-1.915 10.8505,-0.243 0.4468,0.501 0.7635,0.865 0.9155,0.972 1.1995,0.841 5.0057,4.631 7.5057,4.549 2.9691,0.094 5.7193,-0.345 8.6426,-2.105 9.9462,-3.523 14.3015,-38.21 25.0888,-26.372 0.675,-0.015 1.4186,0.086 2.225,0.345 8.5658,2.642 17.0232,19.615 27.0678,21.893 5.37,3.586 8.94,4.225 14.549,4.38 3.897,-0.013 7.809,-0.675 10.48,-0.812 1.666,-0.149 2.97,-0.301 3.469,-0.046 2.915,1.493 17.693,-5.582 25.386,-5.141 5.082,0.506 10.024,2.836 11.784,2.615 2.891,-0.363 13.725,4.892 19.073,2.761 6.752,-2.669 15.483,-10.789 17.632,-11.888"
            style="fill:none;stroke:currentColor;stroke-width:0.267315;stroke-opacity:1"
            id="path36610" />
         <path
            d="m -0.0574721,195.367 c 0,0 7.2020321,0.918 14.6942721,-2.979 1.5626,-0.84 2.8203,-1.553 3.907,-2.224 2.6912,-1.664 3.3498,-2.458 6.5086,-4.371 4.133,-3.26 7.053,-2.318 10.6908,-0.721 0.439,0.485 0.7557,0.841 0.9178,0.955 1.2795,0.897 4.9892,4.526 7.4627,4.498 2.974,0.159 5.7173,-0.24 8.6031,-1.915 10.2766,-3.468 14.4572,-37.809 25.3388,-24.685 0.6566,0.034 1.3846,0.17 2.1781,0.447 8.4124,2.831 17.3974,18.404 27.7493,20.278 5.366,3.269 9.029,3.785 14.553,3.891 3.895,-0.047 7.761,-0.668 10.397,-0.734 1.617,-0.099 2.9,-0.205 3.432,0.068 3.109,1.592 17.484,-4.973 25.255,-4.574 4.986,0.47 9.847,2.635 11.724,2.399 3.083,-0.387 13.613,4.466 18.969,2.378 6.772,-2.618 15.347,-10.373 17.64,-11.545"
            style="fill:none;stroke:currentColor;stroke-width:0.267315;stroke-opacity:1"
            id="path36612" />
         <path
            d="m -0.0560827,195.069 c 0,0 7.1300827,0.909 14.5811827,-2.921 1.5354,-0.817 2.7877,-1.521 3.8801,-2.195 2.6676,-1.648 3.3825,-2.503 6.4054,-4.402 4.0433,-3.324 6.7977,-2.721 10.5311,-1.198 0.4312,0.468 0.748,0.816 0.9202,0.937 1.3595,0.953 4.9728,4.42 7.4198,4.446 2.9787,0.225 5.7152,-0.134 8.5635,-1.724 10.6069,-3.414 14.613,-37.408 25.5889,-22.998 0.6382,0.084 1.3506,0.254 2.131,0.55 8.259,3.019 17.7716,17.192 28.4309,18.662 5.362,2.952 9.118,3.345 14.557,3.402 3.892,-0.081 7.713,-0.66 10.313,-0.655 1.569,-0.05 2.83,-0.109 3.395,0.18 3.304,1.692 17.276,-4.363 25.125,-4.005 4.89,0.432 9.67,2.434 11.664,2.183 3.276,-0.412 13.501,4.038 18.864,1.994 6.792,-2.568 15.213,-9.957 17.649,-11.203"
            style="fill:none;stroke:currentColor;stroke-width:0.267315;stroke-opacity:1"
            id="path36614" />
         <path
            d="m -0.0546934,194.772 c 0,0 7.0581334,0.899 14.4680934,-2.864 1.5083,-0.793 2.7551,-1.489 3.8531,-2.165 2.6442,-1.633 3.4153,-2.549 6.3024,-4.434 3.9535,-3.388 6.5423,-3.123 10.3714,-1.675 0.4233,0.451 0.7401,0.791 0.9226,0.919 1.4394,1.009 4.9563,4.315 7.3768,4.394 2.9834,0.29 5.7131,-0.027 8.5238,-1.533 10.9374,-3.359 14.7689,-37.007 25.8391,-21.311 0.6197,0.133 1.3165,0.338 2.0839,0.652 8.1056,3.207 18.1458,15.981 29.1125,17.047 5.358,2.635 9.207,2.905 14.561,2.914 3.889,-0.117 7.665,-0.653 10.229,-0.578 1.52,0.001 2.76,-0.013 3.359,0.294 3.498,1.791 17.066,-3.754 24.994,-3.438 4.794,0.395 9.493,2.233 11.604,1.968 3.469,-0.436 13.389,3.611 18.76,1.61 6.811,-2.517 15.078,-9.541 17.657,-10.86"
            style="fill:none;stroke:currentColor;stroke-width:0.267315;stroke-opacity:1"
            id="path36616" />
         <path
            d="m -0.053304,194.474 c 0,0 6.986184,0.891 14.355104,-2.806 1.481,-0.769 2.7224,-1.457 3.8261,-2.136 2.6207,-1.617 3.448,-2.594 6.1993,-4.464 3.8637,-3.452 6.2868,-3.527 10.2117,-2.154 0.4154,0.436 0.7323,0.766 0.9249,0.901 1.5194,1.066 4.9399,4.21 7.3339,4.343 2.9882,0.356 5.711,0.079 8.4842,-1.342 11.2677,-3.305 14.9247,-36.606 26.0892,-19.624 0.6012,0.182 1.2825,0.422 2.0368,0.755 7.9522,3.395 18.5201,14.769 29.7941,15.431 5.354,2.318 9.296,2.465 14.565,2.425 3.887,-0.151 7.617,-0.646 10.145,-0.499 1.472,0.05 2.691,0.083 3.322,0.406 3.693,1.891 16.858,-3.144 24.864,-2.869 4.698,0.357 9.315,2.031 11.545,1.751 3.661,-0.46 13.275,3.184 18.654,1.226 6.831,-2.466 14.944,-9.124 17.666,-10.516"
            style="fill:none;stroke:currentColor;stroke-width:0.267315;stroke-opacity:1"
            id="path36618" />
         <path
            d="m -0.0519146,194.177 c 0,0 6.9142446,0.881 14.2420146,-2.749 1.4539,-0.745 2.6898,-1.425 3.7992,-2.107 2.5972,-1.601 3.4807,-2.639 6.0962,-4.495 3.7739,-3.516 6.0314,-3.93 10.052,-2.631 0.4076,0.419 0.7245,0.741 0.9272,0.883 1.5994,1.122 4.9235,4.105 7.2909,4.292 2.993,0.421 5.709,0.184 8.4447,-1.152 11.598,-3.25 15.0804,-36.206 26.3393,-17.937 0.5827,0.232 1.2484,0.507 1.9897,0.857 7.7989,3.583 18.8943,13.558 30.4757,13.816 5.349,2.001 9.385,2.025 14.57,1.936 3.883,-0.185 7.568,-0.638 10.061,-0.421 1.423,0.101 2.62,0.179 3.285,0.52 3.887,1.99 16.649,-2.535 24.733,-2.302 4.602,0.321 9.138,1.83 11.485,1.536 3.854,-0.485 13.163,2.757 18.549,0.842 6.852,-2.415 14.809,-8.708 17.675,-10.173"
            style="fill:none;stroke:currentColor;stroke-width:0.267315;stroke-opacity:1"
            id="path36620" />
         <path
            d="m -0.0505253,193.879 c 0,0 6.8422953,0.872 14.1290253,-2.691 1.4266,-0.722 2.6571,-1.393 3.7722,-2.078 2.5736,-1.585 3.5134,-2.685 5.9931,-4.526 3.6841,-3.579 5.776,-4.332 9.8923,-3.108 0.3997,0.402 0.7167,0.716 0.9295,0.865 1.6794,1.178 4.9071,4 7.248,4.24 2.9977,0.486 5.7069,0.291 8.4051,-0.961 11.9284,-3.196 15.2362,-35.805 26.5894,-16.251 0.5642,0.282 1.2144,0.592 1.9426,0.961 7.6455,3.771 19.2685,12.346 31.1573,12.2 5.345,1.684 9.474,1.585 14.574,1.448 3.88,-0.221 7.52,-0.631 9.977,-0.343 1.374,0.15 2.55,0.275 3.249,0.632 4.081,2.09 16.439,-1.925 24.602,-1.733 4.506,0.283 8.961,1.629 11.425,1.319 4.047,-0.509 13.051,2.33 18.445,0.459 6.871,-2.365 14.674,-8.291 17.683,-9.831"
            style="fill:none;stroke:currentColor;stroke-width:0.267315;stroke-opacity:1"
            id="path36622" />
         <path
            d="m -0.0491359,193.581 c 0,0 6.7703459,0.863 14.0159359,-2.632 1.3995,-0.699 2.6245,-1.362 3.7452,-2.05 2.5502,-1.569 3.5462,-2.73 5.8901,-4.557 3.5942,-3.643 5.5205,-4.735 9.7326,-3.586 0.3918,0.386 0.7089,0.691 0.9319,0.848 1.7593,1.234 4.8906,3.894 7.205,4.188 3.0025,0.552 5.7048,0.397 8.3655,-0.77 12.2587,-3.141 15.392,-35.404 26.8395,-14.564 0.5457,0.331 1.1803,0.676 1.8955,1.063 7.4921,3.959 19.6428,11.135 31.8389,10.585 5.341,1.368 9.563,1.146 14.578,0.959 3.877,-0.255 7.472,-0.623 9.893,-0.265 1.326,0.2 2.481,0.371 3.212,0.746 4.276,2.189 16.231,-1.316 24.471,-1.166 4.411,0.246 8.785,1.428 11.366,1.104 4.24,-0.533 12.939,1.903 18.34,0.075 6.891,-2.314 14.54,-7.875 17.692,-9.488"
            style="fill:none;stroke:currentColor;stroke-width:0.267315;stroke-opacity:1"
            id="path36624" />
         <path
            d="m -0.0477466,193.284 c 0,0 6.6983966,0.854 13.9028466,-2.575 1.3723,-0.675 2.5919,-1.331 3.7183,-2.021 2.5267,-1.553 3.579,-2.775 5.7869,-4.587 3.5045,-3.708 5.2652,-5.139 9.5729,-4.064 0.384,0.369 0.7012,0.666 0.9343,0.83 1.8393,1.29 4.8742,3.789 7.1621,4.137 3.0072,0.617 5.7027,0.503 8.3259,-0.58 12.589,-3.087 15.5478,-35.003 27.0896,-12.877 0.5272,0.381 1.1463,0.76 1.8484,1.166 7.3387,4.147 20.017,9.923 32.5205,8.969 5.337,1.051 9.652,0.706 14.582,0.47 3.875,-0.29 7.424,-0.616 9.81,-0.186 1.276,0.25 2.41,0.467 3.175,0.858 4.47,2.289 16.022,-0.706 24.34,-0.597 4.315,0.209 8.608,1.226 11.307,0.887 4.432,-0.557 12.826,1.476 18.235,-0.308 6.91,-2.264 14.405,-7.459 17.7,-9.145"
            style="fill:none;stroke:currentColor;stroke-width:0.267315;stroke-opacity:1"
            id="path36626" />
         <path
            d="m -0.0463572,192.986 c 0,0 6.6264472,0.845 13.7898572,-2.517 1.3451,-0.651 2.5592,-1.299 3.6913,-1.992 2.5031,-1.537 3.6117,-2.82 5.6838,-4.618 3.4147,-3.771 5.0098,-5.541 9.4132,-4.541 0.3762,0.353 0.6934,0.641 0.9366,0.811 1.9193,1.347 4.8578,3.684 7.1191,4.086 3.0121,0.682 5.7007,0.609 8.2863,-0.388 12.9195,-3.033 15.7036,-34.603 27.3398,-11.191 0.5087,0.43 1.1122,0.844 1.8013,1.269 7.1854,4.335 20.3912,8.711 33.2021,7.353 5.333,0.734 9.741,0.266 14.586,-0.018 3.872,-0.325 7.376,-0.609 9.726,-0.108 1.228,0.299 2.34,0.562 3.138,0.971 4.665,2.388 15.813,-0.097 24.21,-0.03 4.219,0.172 8.431,1.025 11.247,0.672 4.625,-0.582 12.714,1.049 18.13,-0.692 6.931,-2.213 14.271,-7.043 17.709,-8.802"
            style="fill:none;stroke:currentColor;stroke-width:0.267315;stroke-opacity:1"
            id="path36628" />
         <path
            d="m -0.0449678,192.689 c 0,0 6.5544978,0.835 13.6767678,-2.46 1.3179,-0.628 2.5266,-1.267 3.6644,-1.963 2.4796,-1.521 3.6444,-2.865 5.5807,-4.649 3.3249,-3.835 4.7543,-5.944 9.2535,-5.019 0.3683,0.337 0.6856,0.617 0.9389,0.794 1.9992,1.403 4.8414,3.579 7.0762,4.034 3.0168,0.748 5.6986,0.715 8.2467,-0.197 13.2498,-2.979 15.8594,-34.202 27.5898,-9.504 0.4904,0.479 1.0783,0.929 1.7543,1.371 7.032,4.523 20.7655,7.5 33.8837,5.738 5.329,0.417 9.83,-0.174 14.59,-0.507 3.869,-0.359 7.328,-0.601 9.642,-0.03 1.18,0.349 2.271,0.659 3.102,1.084 4.859,2.488 15.604,0.513 24.079,0.539 4.123,0.134 8.254,0.824 11.187,0.455 4.818,-0.605 12.602,0.622 18.025,-1.075 6.951,-2.163 14.136,-6.627 17.718,-8.459"
            style="fill:none;stroke:currentColor;stroke-width:0.267315;stroke-opacity:1"
            id="path36630" />
         <path
            d="m -0.0435785,192.391 c 0,0 6.4825485,0.826 13.5636785,-2.402 1.2908,-0.604 2.494,-1.235 3.6374,-1.934 2.4562,-1.505 3.6772,-2.91 5.4777,-4.68 3.2351,-3.899 4.4989,-6.347 9.0938,-5.496 0.3604,0.32 0.6777,0.591 0.9412,0.776 2.0792,1.458 4.8249,3.474 7.0333,3.982 3.0215,0.814 5.6966,0.822 8.2071,-0.006 13.5802,-2.924 16.0152,-33.801 27.8399,-7.817 0.4719,0.528 1.0442,1.013 1.7072,1.474 6.8786,4.711 21.1397,6.288 34.5653,4.122 5.325,0.1 9.919,-0.614 14.594,-0.996 3.867,-0.394 7.28,-0.594 9.558,0.049 1.131,0.399 2.201,0.754 3.066,1.197 5.053,2.587 15.395,1.122 23.948,1.106 4.027,0.097 8.077,0.623 11.127,0.24 5.011,-0.63 12.49,0.194 17.921,-1.46 6.97,-2.111 14.001,-6.21 17.726,-8.116"
            style="fill:none;stroke:currentColor;stroke-width:0.267315;stroke-opacity:1"
            id="path36632" />
         <path
            d="m -0.0421891,192.094 c 0,0 6.4106091,0.817 13.4506891,-2.345 1.2635,-0.58 2.4613,-1.203 3.6104,-1.905 2.4326,-1.489 3.7099,-2.955 5.3746,-4.71 3.1453,-3.963 4.2435,-6.75 8.9341,-5.974 0.3526,0.303 0.6699,0.566 0.9436,0.758 2.1591,1.514 4.8084,3.368 6.9903,3.931 3.0263,0.878 5.6945,0.927 8.1675,0.184 13.9105,-2.87 16.171,-33.401 28.09,-6.13 0.4534,0.578 1.0102,1.097 1.6601,1.576 6.7252,4.899 21.5139,5.077 35.2469,2.507 5.32,-0.217 10.008,-1.054 14.598,-1.485 3.864,-0.428 7.232,-0.586 9.475,0.127 1.082,0.449 2.13,0.851 3.028,1.31 5.247,2.687 15.186,1.732 23.818,1.674 3.931,0.061 7.9,0.422 11.068,0.024 5.203,-0.654 12.377,-0.232 17.815,-1.843 6.991,-2.06 13.867,-5.794 17.735,-7.773"
            style="fill:none;stroke:currentColor;stroke-width:0.267315;stroke-opacity:1"
            id="path36634" />
         <path
            d="m -0.0407997,191.796 c 0,0 6.3386597,0.808 13.3375997,-2.287 1.2364,-0.556 2.4287,-1.171 3.5835,-1.876 2.4091,-1.473 3.7426,-3 5.2714,-4.741 3.0555,-4.027 3.9881,-7.153 8.7745,-6.452 0.3447,0.287 0.6621,0.542 0.9459,0.741 2.2391,1.57 4.792,3.263 6.9473,3.879 3.0311,0.944 5.6925,1.033 8.128,0.375 14.2408,-2.815 16.3267,-33 28.3401,-4.444 0.4349,0.628 0.9761,1.182 1.613,1.68 6.5719,5.087 21.8881,3.865 35.9285,0.891 5.316,-0.534 10.097,-1.494 14.602,-1.973 3.861,-0.463 7.184,-0.579 9.391,0.205 1.034,0.498 2.061,0.946 2.992,1.423 5.441,2.786 14.977,2.341 23.687,2.242 3.835,0.023 7.723,0.22 11.008,-0.192 5.396,-0.679 12.265,-0.66 17.711,-2.227 7.01,-2.01 13.732,-5.378 17.743,-7.43"
            style="fill:none;stroke:currentColor;stroke-width:0.267315;stroke-opacity:1"
            id="path36636" />
         <path
            d="m -0.0394104,191.498 c 0,0 6.2667104,0.799 13.2246104,-2.228 1.2091,-0.534 2.396,-1.14 3.5565,-1.848 2.3856,-1.458 3.7753,-3.045 5.1683,-4.772 2.9657,-4.09 3.7327,-7.556 8.6147,-6.929 0.3369,0.271 0.6544,0.516 0.9483,0.723 2.3191,1.626 4.7756,3.157 6.9044,3.827 3.0358,1.01 5.6904,1.14 8.0883,0.566 14.5713,-2.761 16.4826,-32.599 28.5903,-2.757 0.4164,0.677 0.9421,1.266 1.5659,1.782 6.4185,5.275 22.2624,2.654 36.6101,-0.724 5.312,-0.851 10.186,-1.934 14.606,-2.462 3.859,-0.498 7.136,-0.571 9.307,0.283 0.985,0.549 1.991,1.043 2.955,1.536 5.636,2.886 14.769,2.951 23.556,2.81 3.74,-0.014 7.547,0.02 10.949,-0.408 5.589,-0.702 12.153,-1.086 17.606,-2.61 7.03,-1.959 13.597,-4.962 17.752,-7.087"
            style="fill:none;stroke:currentColor;stroke-width:0.267315;stroke-opacity:1"
            id="path36638" />
         <path
            d="m -0.038021,191.201 c 0,0 6.194761,0.789 13.111521,-2.171 1.182,-0.51 2.3634,-1.108 3.5295,-1.819 2.3622,-1.442 3.8081,-3.091 5.0653,-4.803 2.8759,-4.154 3.4773,-7.958 8.455,-7.406 0.329,0.254 0.6466,0.491 0.9506,0.704 2.3991,1.683 4.7592,3.053 6.8615,3.776 3.0406,1.075 5.6883,1.246 8.0487,0.757 14.9016,-2.707 16.6384,-32.198 28.8404,-1.07 0.3979,0.727 0.908,1.351 1.5188,1.885 6.2651,5.463 22.6366,1.442 37.2917,-2.341 5.308,-1.167 10.275,-2.373 14.61,-2.95 3.856,-0.532 7.088,-0.564 9.224,0.362 0.936,0.598 1.92,1.138 2.918,1.649 5.83,2.985 14.559,3.56 23.425,3.378 3.644,-0.052 7.369,-0.182 10.889,-0.624 5.782,-0.727 12.041,-1.514 17.501,-2.994 7.05,-1.909 13.463,-4.546 17.761,-6.745"
            style="fill:none;stroke:currentColor;stroke-width:0.267315;stroke-opacity:1"
            id="path36640" />
      </g>
      <g
         id="g36704"
         transform="translate(0.01534854,-142.86665)">
         <path
            d="m -0.038725,190.606 c 0,0 8.266485,1 16.459425,-3.856 8.0409,-4.833 6.2849,-13.01 13.3807,-12.396 30.4343,22.082 29.4045,-34.218 45.1498,5.506 7.287,13.518 51.2298,-10.336 63.0418,-5.109 16.556,11.036 56.35,2.896 71.972,-5.095"
            style="fill:none;stroke:currentColor;stroke-width:0.267303;stroke-opacity:1"
            id="path36644" />
         <path
            d="m -0.0408184,190.308 c 0,0 8.1808084,0.937 16.4179184,-3.809 7.9328,-4.697 6.4278,-12.633 13.5039,-12.074 29.918,21.267 29.5495,-33.258 45.4283,5.037 7.6929,12.963 50.8497,-10.205 62.8847,-5.251 17.228,10.472 56.672,2.447 71.774,-5.278"
            style="fill:none;stroke:currentColor;stroke-width:0.267303;stroke-opacity:1"
            id="path36646" />
         <path
            d="m -0.0429117,190.01 c 0,0 8.0951217,0.873 16.3763117,-3.761 7.8248,-4.562 6.5708,-12.256 13.6271,-11.752 29.4018,20.45 29.6947,-32.298 45.707,4.566 8.0987,12.409 50.4705,-10.073 62.7275,-5.392 17.899,9.908 56.994,1.998 71.575,-5.461"
            style="fill:none;stroke:currentColor;stroke-width:0.267303;stroke-opacity:1"
            id="path36648" />
         <path
            d="m -0.0450051,189.713 c 0,0 8.0094451,0.809 16.3348051,-3.715 7.7168,-4.426 6.7136,-11.878 13.7502,-11.43 28.8856,19.635 29.8398,-31.338 45.9857,4.097 8.5045,11.854 50.0903,-9.941 62.5703,-5.534 18.571,9.344 57.316,1.549 71.376,-5.644"
            style="fill:none;stroke:currentColor;stroke-width:0.267303;stroke-opacity:1"
            id="path36650" />
         <path
            d="m -0.0470984,189.415 c 0,0 7.9237584,0.745 16.2931984,-3.667 7.6088,-4.291 6.8566,-11.501 13.8735,-11.108 28.3693,18.818 29.9849,-30.378 46.2643,3.627 8.9102,11.299 49.7101,-9.81 62.4131,-5.676 19.243,8.78 57.637,1.099 71.177,-5.826"
            style="fill:none;stroke:currentColor;stroke-width:0.267303;stroke-opacity:1"
            id="path36652" />
         <path
            d="m -0.0491918,189.117 c 0,0 7.8380718,0.682 16.2515918,-3.62 7.5008,-4.155 6.9996,-11.124 13.9967,-10.786 27.8531,18.002 30.1301,-29.418 46.543,3.158 9.316,10.744 49.3309,-9.679 62.2559,-5.817 19.915,8.215 57.959,0.649 70.978,-6.01"
            style="fill:none;stroke:currentColor;stroke-width:0.267303;stroke-opacity:1"
            id="path36654" />
         <path
            d="m -0.0512851,188.82 c 0,0 7.7523951,0.618 16.2100851,-3.573 7.3927,-4.02 7.1424,-10.747 14.1198,-10.465 27.3369,17.187 30.2752,-28.457 46.8217,2.689 9.7218,10.19 48.9507,-9.547 62.0987,-5.959 20.587,7.651 58.281,0.2 70.779,-6.193"
            style="fill:none;stroke:currentColor;stroke-width:0.267303;stroke-opacity:1"
            id="path36656" />
         <path
            d="m -0.0533785,188.522 c 0,0 7.6667085,0.554 16.1684785,-3.526 7.2847,-3.884 7.2854,-10.369 14.2431,-10.142 26.8207,16.37 30.4203,-27.498 47.1002,2.218 10.1277,9.636 48.5706,-9.415 61.9416,-6.1 21.259,7.087 58.603,-0.25 70.58,-6.376"
            style="fill:none;stroke:currentColor;stroke-width:0.267303;stroke-opacity:1"
            id="path36658" />
         <path
            d="m -0.0554718,188.224 c 0,0 7.5810318,0.491 16.1268718,-3.478 7.1768,-3.749 7.4284,-9.993 14.3663,-9.821 26.3045,15.555 30.5654,-26.537 47.3789,1.749 10.5335,9.081 48.1914,-9.284 61.7844,-6.242 21.931,6.523 58.925,-0.699 70.381,-6.559"
            style="fill:none;stroke:currentColor;stroke-width:0.267303;stroke-opacity:1"
            id="path36660" />
         <path
            d="m -0.0575652,187.927 c 0,0 7.4953452,0.426 16.0853652,-3.431 7.0687,-3.614 7.5712,-9.616 14.4894,-9.499 25.7883,14.738 30.7106,-25.578 47.6576,1.279 10.9392,8.526 47.8112,-9.153 61.6272,-6.384 22.603,5.959 59.247,-1.148 70.182,-6.742"
            style="fill:none;stroke:currentColor;stroke-width:0.267303;stroke-opacity:1"
            id="path36662" />
         <path
            d="m -0.0596585,187.629 c 0,0 7.4096585,0.363 16.0437585,-3.384 6.9607,-3.478 7.7142,-9.238 14.6127,-9.177 25.272,13.923 30.8556,-24.617 47.9362,0.81 11.345,7.971 47.431,-9.021 61.47,-6.525 23.275,5.394 59.568,-1.598 69.983,-6.926"
            style="fill:none;stroke:currentColor;stroke-width:0.267303;stroke-opacity:1"
            id="path36664" />
         <path
            d="m -0.0617519,187.332 c 0,0 7.3239819,0.298 16.0022519,-3.337 6.8526,-3.343 7.8571,-8.862 14.7358,-8.855 24.7558,13.106 31.0008,-23.658 48.2149,0.339 11.7508,7.417 47.0518,-8.889 61.3128,-6.666 23.946,4.83 59.89,-2.048 69.784,-7.109"
            style="fill:none;stroke:currentColor;stroke-width:0.267303;stroke-opacity:1"
            id="path36666" />
         <path
            d="m -0.0638452,187.034 c 0,0 7.2382952,0.235 15.9606452,-3.29 6.7446,-3.207 8,-8.484 14.859,-8.533 24.2396,12.29 31.1459,-22.697 48.4936,-0.13 12.1566,6.862 46.6716,-8.758 61.1556,-6.808 24.618,4.266 60.212,-2.497 69.586,-7.292"
            style="fill:none;stroke:currentColor;stroke-width:0.267303;stroke-opacity:1"
            id="path36668" />
         <path
            d="m -0.0659386,186.736 c 0,0 7.1526186,0.171 15.9190386,-3.242 6.6367,-3.072 8.143,-8.107 14.9823,-8.212 23.7233,11.475 31.291,-21.736 48.7722,-0.599 12.5624,6.307 46.2924,-8.626 60.9984,-6.95 25.29,3.702 60.534,-2.946 69.387,-7.475"
            style="fill:none;stroke:currentColor;stroke-width:0.267303;stroke-opacity:1"
            id="path36670" />
         <path
            d="m -0.0680319,186.439 c 0,0 7.0669319,0.107 15.8775319,-3.196 6.5286,-2.936 8.2859,-7.73 15.1054,-7.889 23.2071,10.658 31.4361,-20.777 49.0508,-1.069 12.9683,5.753 45.9123,-8.495 60.8413,-7.092 25.962,3.138 60.856,-3.396 69.188,-7.658"
            style="fill:none;stroke:currentColor;stroke-width:0.267303;stroke-opacity:1"
            id="path36672" />
         <path
            d="m -0.0701253,186.141 c 0,0 6.9812453,0.043 15.8359253,-3.148 6.4206,-2.801 8.4288,-7.353 15.2286,-7.568 22.6909,9.843 31.5813,-19.816 49.3295,-1.538 13.374,5.198 45.5321,-8.364 60.6841,-7.233 26.634,2.574 61.178,-3.846 68.989,-7.842"
            style="fill:none;stroke:currentColor;stroke-width:0.267303;stroke-opacity:1"
            id="path36674" />
         <path
            d="m -0.0722186,185.843 c 0,0 6.8955686,-0.02 15.7944186,-3.101 6.3125,-2.665 8.5717,-6.975 15.3518,-7.245 22.1746,9.026 31.7263,-18.857 49.6081,-2.009 13.7798,4.644 45.1529,-8.231 60.5269,-7.374 27.306,2.01 61.499,-4.295 68.79,-8.024"
            style="fill:none;stroke:currentColor;stroke-width:0.267303;stroke-opacity:1"
            id="path36676" />
         <path
            d="m -0.074312,185.546 c 0,0 6.809882,-0.084 15.752812,-3.054 6.2046,-2.53 8.7147,-6.599 15.475,-6.924 21.6584,8.211 31.8715,-17.896 49.8868,-2.478 14.1856,4.089 44.7727,-8.1 60.3697,-7.516 27.978,1.446 61.821,-4.744 68.591,-8.207"
            style="fill:none;stroke:currentColor;stroke-width:0.267303;stroke-opacity:1"
            id="path36678" />
         <path
            d="m -0.0764053,185.248 c 0,0 6.7242053,-0.148 15.7112053,-3.007 6.0966,-2.394 8.8576,-6.221 15.5982,-6.601 21.1422,7.394 32.0167,-16.937 50.1655,-2.948 14.5914,3.534 44.3925,-7.969 60.2125,-7.658 28.65,0.882 62.143,-5.194 68.392,-8.39"
            style="fill:none;stroke:currentColor;stroke-width:0.267303;stroke-opacity:1"
            id="path36680" />
         <path
            d="m -0.0784987,184.95 c 0,0 6.6385187,-0.211 15.6696987,-2.959 5.9885,-2.26 9.0005,-5.844 15.7214,-6.28 20.6259,6.578 32.1617,-15.976 50.4441,-3.417 14.9972,2.979 44.0133,-7.837 60.0553,-7.8 29.322,0.318 62.465,-5.643 68.193,-8.573"
            style="fill:none;stroke:currentColor;stroke-width:0.267303;stroke-opacity:1"
            id="path36682" />
         <path
            d="m -0.080592,184.653 c 0,0 6.552832,-0.276 15.628092,-2.912 5.8805,-2.125 9.1435,-5.468 15.8446,-5.959 20.1098,5.763 32.3069,-15.016 50.7227,-3.887 15.4031,2.425 43.6332,-7.705 59.8982,-7.94 29.994,-0.247 62.787,-6.093 67.994,-8.757"
            style="fill:none;stroke:currentColor;stroke-width:0.267303;stroke-opacity:1"
            id="path36684" />
         <path
            d="m -0.0826854,184.355 c 0,0 6.4671554,-0.339 15.5864854,-2.865 5.7725,-1.989 9.2865,-5.09 15.9678,-5.636 19.5936,4.946 32.452,-14.056 51.0014,-4.357 15.8088,1.87 43.254,-7.574 59.741,-8.082 30.665,-0.811 63.109,-6.543 67.795,-8.94"
            style="fill:none;stroke:currentColor;stroke-width:0.267303;stroke-opacity:1"
            id="path36686" />
         <path
            d="m -0.0847788,184.058 c 0,0 6.3814688,-0.404 15.5449788,-2.818 5.6645,-1.854 9.4293,-4.713 16.091,-5.315 19.0773,4.131 32.5971,-13.096 51.28,-4.826 16.2146,1.315 42.8738,-7.442 59.5848,-8.224 31.336,-1.375 63.43,-6.992 67.596,-9.123"
            style="fill:none;stroke:currentColor;stroke-width:0.267303;stroke-opacity:1"
            id="path36688" />
         <path
            d="m -0.0868721,183.76 c 0,0 6.2957921,-0.467 15.5033721,-2.771 5.5565,-1.718 9.5723,-4.336 16.2142,-4.992 18.5611,3.314 32.7422,-12.136 51.5587,-5.296 16.6204,0.761 42.4936,-7.311 59.4276,-8.366 32.008,-1.939 63.751,-7.441 67.397,-9.306"
            style="fill:none;stroke:currentColor;stroke-width:0.267303;stroke-opacity:1"
            id="path36690" />
         <path
            d="m -0.0889655,183.462 c 0,0 6.2101055,-0.531 15.4618655,-2.723 5.4484,-1.583 9.7152,-3.959 16.3373,-4.671 18.0449,2.498 32.8874,-11.176 51.8374,-5.765 17.0264,0.206 42.1144,-7.18 59.2704,-8.507 32.68,-2.504 64.073,-7.891 67.198,-9.49"
            style="fill:none;stroke:currentColor;stroke-width:0.267303;stroke-opacity:1"
            id="path36692" />
         <path
            d="m -0.0910588,183.165 c 0,0 6.1244188,-0.595 15.4202588,-2.677 5.3404,-1.447 9.8581,-3.581 16.4606,-4.348 17.5286,1.682 33.0324,-10.216 52.116,-6.236 17.4322,-0.348 41.7342,-7.047 59.1132,-8.648 33.352,-3.068 64.395,-8.341 66.999,-9.673"
            style="fill:none;stroke:currentColor;stroke-width:0.267303;stroke-opacity:1"
            id="path36694" />
         <path
            d="m -0.0931522,182.867 c 0,0 6.0387422,-0.659 15.3786522,-2.629 5.2324,-1.312 10.0011,-3.205 16.5838,-4.027 17.0124,0.866 33.1776,-9.256 52.3947,-6.705 17.838,-0.903 41.354,-6.916 58.956,-8.79 34.024,-3.632 64.717,-8.79 66.8,-9.856"
            style="fill:none;stroke:currentColor;stroke-width:0.267303;stroke-opacity:1"
            id="path36696" />
         <path
            d="m -0.0952455,182.569 c 0,0 5.9530555,-0.722 15.3371455,-2.582 5.1244,-1.176 10.144,-2.827 16.7069,-3.705 16.4962,0.051 33.3227,-8.295 52.6733,-7.174 18.2439,-1.458 40.9749,-6.785 58.7989,-8.932 34.696,-4.196 65.039,-9.239 66.601,-10.038"
            style="fill:none;stroke:currentColor;stroke-width:0.267303;stroke-opacity:1"
            id="path36698" />
         <path
            d="m -0.0973389,182.272 c 0,0 5.8673789,-0.786 15.2955389,-2.535 5.0164,-1.041 10.2869,-2.45 16.8302,-3.383 15.9799,-0.766 33.4678,-7.336 52.9519,-7.644 18.6497,-2.013 40.5947,-6.654 58.6417,-9.074 35.368,-4.76 65.361,-9.689 66.402,-10.221"
            style="fill:none;stroke:currentColor;stroke-width:0.267303;stroke-opacity:1"
            id="path36700" />
         <path
            d="m -0.0994322,181.974 c 0,0 5.7816922,-0.85 15.2540322,-2.487 4.9083,-0.906 10.4298,-2.074 16.9533,-3.062 15.4637,-1.581 33.6129,-6.375 53.2306,-8.114 19.0555,-2.567 40.2145,-6.521 58.4845,-9.214 36.04,-5.325 65.682,-10.139 66.203,-10.405"
            style="fill:none;stroke:currentColor;stroke-width:0.267303;stroke-opacity:1"
            id="path36702" />
      </g>
   </g>
</svg>